<svg height='300px' width='300px'  fill="#000000" xmlns="http://www.w3.org/2000/svg" xmlns:xlink="http://www.w3.org/1999/xlink" version="1.1" x="0px" y="0px" viewBox="0 0 100 100" style="enable-background:new 0 0 100 100;" xml:space="preserve"><style type="text/css">
	.st0{display:none;opacity:0.46;}
</style><g><path d="M64.2,56l2.5,2.5c2.3,2.3,6,2.3,8.3,0c1.1-1.1,1.7-2.6,1.7-4.2c0-1.6-0.6-3.1-1.7-4.2L62.7,37.8c-0.6-0.6-1.5-0.6-2.1,0   c-0.6,0.6-0.6,1.5,0,2.1l12.3,12.3c0.5,0.5,0.8,1.3,0.8,2s-0.3,1.5-0.8,2c-1.1,1.1-3,1.1-4.1,0l-5-5c-0.4-0.4-1.1-0.6-1.6-0.3   c-0.6,0.2-0.9,0.8-0.9,1.4v5.5H38.8v-5.5c0-0.6-0.4-1.2-0.9-1.4c-0.6-0.2-1.2-0.1-1.6,0.3l-5,5c-1.1,1.1-3,1.1-4.1,0   c-0.5-0.5-0.8-1.3-0.8-2s0.3-1.5,0.8-2L39.4,40c0.6-0.6,0.6-1.5,0-2.1c-0.6-0.6-1.5-0.6-2.1,0L25,50.1c-1.1,1.1-1.7,2.6-1.7,4.2   c0,1.6,0.6,3.1,1.7,4.2c2.3,2.3,6,2.3,8.3,0l2.5-2.5v3.4c0,1.1,0.1,2.2,0.4,3.3c0,0,0,0,0,0l-5.9,5.9c-2,2-2.5,5-1.4,7.6L34,87.6   c1.1,2.5,3.6,4,6.2,4c0.9,0,1.8-0.2,2.6-0.5c1.7-0.7,3-2,3.7-3.7c0.7-1.7,0.7-3.5,0-5.2l-3-6.7l2.3-2.3c1.3,0.4,2.7,0.6,4,0.6h0.4   c1.4,0,2.8-0.2,4.1-0.6l2.3,2.3l-3,6.8c-0.7,1.7-0.7,3.5,0,5.2c0.7,1.7,2,3,3.7,3.7c0.9,0.4,1.7,0.5,2.6,0.5c2.6,0,5-1.5,6.2-4   l5.2-11.4c1.1-2.5,0.6-5.6-1.4-7.5l-5.9-5.9c0,0,0,0,0,0c0.3-1.1,0.4-2.2,0.4-3.3V56z M43.7,83.4c0.4,0.9,0.4,2,0,2.9   s-1.1,1.7-2,2.1c-1.9,0.8-4.1-0.1-4.9-2L31.6,75c-0.6-1.4-0.3-3.1,0.8-4.2l5-5c0.7,1.5,1.7,2.8,2.8,4c0.8,0.8,1.7,1.5,2.6,2   L40.6,74c-0.4,0.4-0.6,1.1-0.3,1.7L43.7,83.4z M54.1,70C54.1,70,54.1,70,54.1,70c-1.3,0.5-2.7,0.8-4.1,0.7c-1.4,0-2.8-0.2-4-0.7   c0,0,0,0,0,0c-1.3-0.5-2.6-1.3-3.6-2.4c-1.8-1.8-3-4.2-3.3-6.8h22.1c-0.3,2.6-1.5,5-3.3,6.8C56.6,68.7,55.4,69.5,54.1,70z    M67.6,70.8c1.1,1.1,1.4,2.8,0.8,4.2l-5.2,11.4c-0.8,1.9-3,2.7-4.9,2c-0.9-0.4-1.7-1.1-2-2.1c-0.4-0.9-0.4-2,0-2.9l3.4-7.7   c0.3-0.6,0.1-1.2-0.3-1.7l-2.2-2.2c0.9-0.6,1.8-1.2,2.6-2c1.2-1.2,2.1-2.5,2.8-4L67.6,70.8z M50,36.7c7.8,0,14.2-6.4,14.2-14.2   S57.8,8.4,50,8.4c-7.8,0-14.2,6.4-14.2,14.2S42.2,36.7,50,36.7z M50,11.4c6.2,0,11.2,5,11.2,11.2c0,6.2-5,11.2-11.2,11.2   c-6.2,0-11.2-5-11.2-11.2C38.8,16.4,43.8,11.4,50,11.4z"></path></g></svg>