<?xml version="1.0" encoding="utf-8"?>
<!-- Generator: Adobe Illustrator 22.0.1, SVG Export Plug-In . SVG Version: 6.00 Build 0)  -->
<svg version="1.1" id="Livello_1" xmlns="http://www.w3.org/2000/svg" xmlns:xlink="http://www.w3.org/1999/xlink" x="0px" y="0px"
	 viewBox="0 0 150 150" style="enable-background:new 0 0 150 150;" xml:space="preserve">
<style type="text/css">
	.st0{fill:none;stroke:#000000;stroke-width:7;stroke-miterlimit:10;}
</style>
<path class="st0" d="M98.9,66.5c0-7.7-6.5-7.3-10-7.3c-3.6,0-3.8-2.3-3.8-2.3H77h-4h-8.2c0,0-0.2,2.3-3.8,2.3c-3.6,0-10-0.4-10,7.3
	h0v62.3h47.9L98.9,66.5L98.9,66.5z"/>
<path class="st0" d="M80.5,30.3c-0.1-9-5.5-9.1-5.5-9.1s-5.4,0.1-5.5,9.1s-6.9,9.4-6.9,13.7H75h12.4C87.4,39.7,80.6,39.3,80.5,30.3z
	"/>
<path class="st0" d="M90.6,56.9H59.4c-2.9,0-5.2-2.3-5.2-5.2v-2.5c0-2.9,2.3-5.2,5.2-5.2h31.2c2.9,0,5.2,2.3,5.2,5.2v2.5
	C95.8,54.6,93.4,56.9,90.6,56.9z"/>
<rect x="62.1" y="73.5" class="st0" width="25.8" height="31.7"/>
</svg>
