<svg height='300px' width='300px'  fill="#000000" xmlns="http://www.w3.org/2000/svg" xmlns:xlink="http://www.w3.org/1999/xlink" version="1.1" x="0px" y="0px" viewBox="0 0 105 105" enable-background="new 0 0 105 105" xml:space="preserve"><g><path fill="#000000" d="M100.515,56.34C95.172,48.941,87.213,44.198,79.3,41.142l-3.306,13.135   c-0.437,1.725-1.81,2.865-3.053,2.555c-1.248-0.318-1.915-1.973-1.479-3.695l3.416-13.545c-8.236-2.584-15.793-3.466-19.664-3.766   v13.4c0,1.778-1.051,3.223-2.332,3.223c-1.285,0-2.336-1.444-2.336-3.223V35.769c-3.45,0.231-11.174,1.026-19.713,3.617   l3.466,13.75c0.44,1.723-0.228,3.377-1.479,3.695c-1.243,0.311-2.611-0.83-3.048-2.555L26.395,40.88   C18.261,43.917,9.987,48.722,4.485,56.34c0,0-10.003,12.891,14.894,12.891s33.121,0,33.121,0s8.225,0,33.121,0   S100.515,56.34,100.515,56.34z"></path></g></svg>