<?xml version="1.0" encoding="utf-8"?>
<!-- Generator: Adobe Illustrator 22.0.1, SVG Export Plug-In . SVG Version: 6.00 Build 0)  -->
<svg version="1.1" id="Livello_1" xmlns="http://www.w3.org/2000/svg" xmlns:xlink="http://www.w3.org/1999/xlink" x="0px" y="0px"
	 viewBox="0 0 150 150" style="enable-background:new 0 0 150 150;" xml:space="preserve">
<style type="text/css">
	.st0{fill:none;stroke:#000000;stroke-width:7;stroke-miterlimit:10;}
</style>
<path class="st0" d="M129.8,81.7c-1.4-4-23.3-25.7-48.3-29.2c-1.9-0.3-4-0.5-6.3-0.5c-0.1,0-0.1,0-0.2,0c-0.1,0-0.1,0-0.2,0
	c-2.5,0-4.7,0.2-6.7,0.6c-24.8,3.7-46.5,25.2-47.8,29.1C18.7,86,19.9,98,32.9,98c12.1,0,38.3,0,41.9,0c0,0,0.2,0,0.4,0
	c3.6,0,29.8,0,41.9,0C130.1,98,131.3,86,129.8,81.7z"/>
<path class="st0" d="M36.3,66.3c0,0,6,2.8,9,11.3c0,0,6.9-11.9,6-20"/>
<path class="st0" d="M63.6,53.4c0,0,6.9,4.3,10,22.9c0,0,8.6-12,10.7-23.4"/>
<path class="st0" d="M98.7,57.7c0,0,2.7,10.7-0.3,23c0,0,9-2.6,14.1-15.1"/>
</svg>
