<?xml version="1.0" encoding="utf-8"?>
<!-- Generator: Adobe Illustrator 22.0.1, SVG Export Plug-In . SVG Version: 6.00 Build 0)  -->
<svg version="1.1" id="Livello_1" xmlns="http://www.w3.org/2000/svg" xmlns:xlink="http://www.w3.org/1999/xlink" x="0px" y="0px"
	 viewBox="0 0 150 150" style="enable-background:new 0 0 150 150;" xml:space="preserve">
<style type="text/css">
	.st0{fill:none;stroke:#000000;stroke-width:7;stroke-miterlimit:10;}
</style>
<g>
	<g>
		<rect x="13.7" y="65.4" class="st0" width="14.3" height="38.1"/>
		<path class="st0" d="M28,71.7c0,0,17.4,0,28,0s12.2,10,26.5,10s21.7,0,21.7,0c0,12.6-9.8,12-21.6,12S63.2,85,56.7,85"/>
		<path class="st0" d="M28,97.2c0,0,7.1,0,20,0s22.7,11.9,39.3,11.9s52.9-7.8,52.9-20.3h-37.7"/>
	</g>
	<path class="st0" d="M115.3,38c-4.1-4.1-10.6-4.1-14.7,0c0,0,0,0,0,0c-4.1-4-10.6-3.9-14.6,0.1c-4.1,4.1-4.1,10.7,0,14.8l14.6,14.7
		l14.7-14.8C119.4,48.7,119.4,42.1,115.3,38z"/>
</g>
</svg>
