<?xml version="1.0" encoding="utf-8"?>
<!-- Generator: Adobe Illustrator 22.0.1, SVG Export Plug-In . SVG Version: 6.00 Build 0)  -->
<svg version="1.1" id="Livello_1" xmlns="http://www.w3.org/2000/svg" xmlns:xlink="http://www.w3.org/1999/xlink" x="0px" y="0px"
	 viewBox="0 0 150 150" style="enable-background:new 0 0 150 150;" xml:space="preserve">
<style type="text/css">
	.st0{fill:none;stroke:#000000;stroke-width:7;stroke-miterlimit:10;}
</style>
<g>
	<path class="st0" d="M103.1,63.6"/>
	<circle class="st0" cx="106.9" cy="96.6" r="8.3"/>
	<circle class="st0" cx="54" cy="96.1" r="8.3"/>
	<polygon class="st0" points="100.1,76.5 103.6,63.6 116.5,63.6 113,76.5 	"/>
	<g>
		<path class="st0" d="M48.3,45.1l-13.7,51h11c0.1-4.5,3.8-8,8.3-8c4.5,0,8.1,3.6,8.3,8h23.2l13.7-51H48.3z"/>
		<path class="st0" d="M117.8,54.6H96.6L85.5,96.1h13.1c0.4-4.2,3.9-7.5,8.3-7.5c4.3,0,7.9,3.3,8.3,7.5h9.4l7.2-26.9L117.8,54.6z"/>
	</g>
	<line class="st0" x1="37.5" y1="50.1" x2="8.2" y2="50.1"/>
	<line class="st0" x1="32.1" y1="70.1" x2="8.2" y2="70.1"/>
	<line class="st0" x1="26.7" y1="90.1" x2="8.2" y2="90.1"/>
</g>
</svg>
