<svg height='300px' width='300px'  fill="#000000" xmlns="http://www.w3.org/2000/svg" viewBox="0 0 48 48" x="0px" y="0px"><title>Nature vol.1</title><g data-name="Layer 19"><path d="M35.14014,29.96973a.99854.99854,0,0,0-1.13575-.81739C29.23492,29.87817,26.5376,32.06952,25,34.20581v-13.447c3.56641-.19629,6.17725-1.46875,7.769-3.78906,3.75293-5.46973.25879-14.7002.1084-15.09082a1.0011,1.0011,0,0,0-1.61767-.36914L28.65186,3.959,26.70508,1.60254a.99994.99994,0,0,0-1.625.11719L24,3.49432,22.91992,1.71973a.99994.99994,0,0,0-1.625-.11719L19.34814,3.959,16.74023,1.50977a1.0011,1.0011,0,0,0-1.61767.36914c-.15039.39062-3.64453,9.62109.1084,15.09082,1.58984,2.318,4.20855,3.577,7.769,3.77569v5.73047c-1.5376-2.13611-4.23492-4.32721-9.00439-5.053a.999.999,0,0,0-1.13575.81738c-.0332.19141-.77978,4.72168,2.0791,7.74707,1.59083,1.6836,3.93116,2.53125,6.9751,2.53125q.52863,0,1.08594-.03472V45.76074a1,1,0,0,0,2,0V40.21436q.55627.03423,1.085.03466c3.044,0,5.38477-.84863,6.97608-2.53222C35.91992,34.69141,35.17334,30.16113,35.14014,29.96973ZM16.40137,28.62305a7.16676,7.16676,0,0,1-1.64795-5.02832c5.82324,1.2705,7.55273,5.07519,8.05371,6.89746C19.89355,30.65918,17.74072,30.03223,16.40137,28.62305Zm.481-12.78125c-2.37353-3.45508-1.13964-9.14356-.36474-11.79688l2.23828,2.10156a1.0244,1.0244,0,0,0,.74756.26856,1.00082,1.00082,0,0,0,.708-.36133L21.94189,3.959,23.146,5.93652c.00647.01068.01757.01612.02441.02649a.98821.98821,0,0,0,.14032.1521.98846.98846,0,0,0,.14014.12946c.01135.00757.01733.01977.02911.02691a.94825.94825,0,0,0,.137.04944.98259.98259,0,0,0,.19226.0694,2.02916,2.02916,0,0,0,.38117,0,.9845.9845,0,0,0,.19037-.0686A.93987.93987,0,0,0,24.52,6.27148c.012-.00732.01807-.01971.02966-.0274a.99391.99391,0,0,0,.13727-.12683.98759.98759,0,0,0,.1427-.15436c.00684-.01031.01788-.01569.02435-.02637L26.05811,3.959l1.73046,2.09473a1.00082,1.00082,0,0,0,.708.36133,1.04239,1.04239,0,0,0,.74756-.26856L31.4834,4.044c.77637,2.64941,2.01269,8.33105-.36328,11.79492C29.77832,17.794,27.38281,18.78613,24,18.78613,20.61914,18.78613,18.22412,17.7959,16.88232,15.8418Zm14.7251,20.502c-1.33789,1.415-3.49219,2.03809-6.40674,1.87988.51416-1.8164,2.26807-5.63281,8.04981-6.89941A7.13743,7.13743,0,0,1,31.60742,36.34375Z"></path></g></svg>