<?xml version="1.0" encoding="utf-8"?>
<!-- Generator: Adobe Illustrator 22.0.1, SVG Export Plug-In . SVG Version: 6.00 Build 0)  -->
<svg version="1.1" id="Livello_1" xmlns="http://www.w3.org/2000/svg" xmlns:xlink="http://www.w3.org/1999/xlink" x="0px" y="0px"
	 viewBox="0 0 150 150" style="enable-background:new 0 0 150 150;" xml:space="preserve">
<style type="text/css">
	.st0{fill:none;stroke:#000000;stroke-width:7;stroke-miterlimit:10;}
</style>
<g>
	<path class="st0" d="M115.7,42L96.5,59.6c-8.1,7.4-22.1,6.5-31.3-2s-10.2-21.5-2.1-29L82.2,11l-2.6,17.9l19.3-2.4l-2.5,17.9
		L115.7,42z"/>
	<path class="st0" d="M65.2,57.6c0,0-18.6,8.6-23.8,41.9s10.9,41,10.9,41s13.4-0.1,32.6-24.6s21-38.2,21-38.2s-30.5,5-46.8,29.1
		s-6.7,33.6-6.7,33.6"/>
</g>
<path class="st0" d="M52.3,140.5c0,0-14.3-1.8-24.1-18.3s-7.5-36.8-7.5-36.8s17.5,4,34,28.4"/>
<line class="st0" x1="29.3" y1="140.5" x2="112.5" y2="140.5"/>
</svg>
