<svg height='300px' width='300px'  fill="#000000" xmlns="http://www.w3.org/2000/svg" xmlns:xlink="http://www.w3.org/1999/xlink" version="1.1" x="0px" y="0px" viewBox="0 0 32 32" style="enable-background:new 0 0 32 32;" xml:space="preserve"><g><g><path d="M10.28162,31c-0.822093,0-1.7430573-0.167532-2.7963071-0.5620995    c-1.9705524-0.7369537-3.4467502-2.4232521-4.1566982-4.7485504c-0.9314921-3.0512657-0.3881598-6.7369537,1.3512361-9.1711941    c3.2014036-4.4803162,8.4223375-5.084528,13.1077204-5.084528c2.5559959,0,8.7216969,0.5813246,10.7741833,5.9679585    c1.2665558,3.3231621,0.2252064,6.4678059-1.4578876,7.8556614c-1.1031437,0.9090633-2.4269142,1.0381451-3.5410442,0.3451328    c-2.1522732-1.3356743-3.5245647-0.5007629-5.2644176,0.5556908l-0.0627098,0.0384502    c-0.9241695,0.5602684-1.7215443,1.2898979-2.4932871,1.9966431C14.2286758,29.5782719,12.6760359,31,10.28162,31z     M17.787571,12.8397923c-4.5453157,0-9.1405249,0.5447054-11.9633808,4.4949646    c-1.4986267,2.0973454-1.9609399,5.2895947-1.1507478,7.9435463c0.5794935,1.8977718,1.7531281,3.2627411,3.3043947,3.8431492    c3.313549,1.2377186,4.8588648-0.1748543,6.8152275-1.965517c0.8216352-0.7525177,1.6711922-1.5297527,2.7129993-2.162344    l0.3648148,0.6014652l-0.3648148-0.6005497l0.3648148,0.6005497l-0.3021049-0.6389999    c1.8048515-1.0958195,3.8509312-2.3408604,6.7355804-0.547451c0.763504,0.473299,1.456974,0.1327438,1.9050961-0.2361927    c1.264267-1.0427208,2.0579815-3.5950546,1.0386028-6.2709789C25.5695362,13.4971008,20.6003571,12.8397923,17.787571,12.8397923z    "></path></g><g><path d="M22.2729225,21.7619781c-1.6290798,0-2.9546833-1.3256035-2.9546833-2.9542274    c0-1.6295395,1.3256035-2.955142,2.9546833-2.955142c1.6295395,0,2.955143,1.3256025,2.955143,2.955142    C25.2280655,20.4363747,23.902462,21.7619781,22.2729225,21.7619781z M22.2729225,17.2587738    c-0.8536758,0-1.5485191,0.6948414-1.5485191,1.5489769c0,0.85322,0.6948433,1.5480633,1.5485191,1.5480633    c0.8541355,0,1.5489788-0.6948433,1.5489788-1.5480633C23.8219013,17.9536152,23.127058,17.2587738,22.2729225,17.2587738z"></path></g><g><path d="M5.0794539,28.4156246c-0.341929,0-0.6412878-0.2499237-0.6943855-0.5978031    c-0.0581322-0.3835831,0.2059813-0.7424469,0.5900216-0.8001232c3.845438-0.5831547,4.568203-3.1281643,5.5683556-6.6508999    c0.2787609-0.9813843,0.5671339-1.9975586,0.9470549-3.0439415c1.881752-5.1834002,8.5427217-5.6786699,8.8251448-5.6969795    c0.4046383-0.0173941,0.7213917,0.2682333,0.7474823,0.654562c0.0256329,0.3872442-0.2673168,0.7223072-0.654562,0.7479401    c-0.0599632,0.0045776-6.0297527,0.4586515-7.5961246,4.7741833c-0.3629837,0.9996948-0.6440334,1.9902363-0.9163866,2.9487343    c-1.012969,3.5685081-1.9696369,6.9383583-6.7104058,7.6560879C5.1499453,28.412878,5.1146994,28.4156246,5.0794539,28.4156246z"></path></g><g><path d="M3.8133566,25.4613972c-0.2787609,0-0.5428746-0.1666145-0.6527312-0.442173    c-0.1441867-0.3606949,0.031126-0.7699108,0.3918219-0.9136391c2.0108333-0.8047009,2.9098263-1.9893208,3.5616417-4.6972847    c1.4047909-5.8352156,6.1377783-7.6295395,6.3387241-7.7027769c0.3634424-0.1336594,0.7685385,0.0540123,0.9017401,0.4183702    c0.1332006,0.3643579-0.0530977,0.7671652-0.4165401,0.9008236l0,0c-0.1721087,0.0649986-4.2335978,1.6322861-5.4571247,6.7131519    c-0.7593842,3.1547146-1.9536166,4.6927071-4.4066224,5.6731777C3.9886694,25.4449196,3.9003265,25.4613972,3.8133566,25.4613972z    "></path></g><g><path d="M21.6613884,10.4494963c-4.7343597,0-11.3207197-1.5947514-13.7059813-4.1718035    c-0.2494659-0.2700639-0.2494659-0.685688,0-0.9557519c2.3852615-2.5770524,8.9716215-4.1718035,13.7059813-4.1718035    c4.9096737,0,6.8893814,1.7293257,9.1505947,4.1718035c0.2494659,0.2700639,0.2494659,0.685688,0,0.9557519    C28.5507698,8.720171,26.5710621,10.4494963,21.6613884,10.4494963z M9.5075893,5.7998171    c2.4324074,1.934391,8.1129074,3.243515,12.1537991,3.243515c4.0514183,0,5.7331409-1.2139149,7.6707363-3.243515    c-1.9375954-2.0296004-3.619318-3.2435155-7.6707363-3.2435155C17.6204967,2.5563016,11.9399967,3.8654256,9.5075893,5.7998171z"></path></g><g><path d="M1.7041104,10.5996342c-0.1981995,0-0.3877021-0.0842237-0.5209032-0.2306995    c-0.1332011-0.1473904-0.1981996-0.3433018-0.1789746-0.5410433c0.0119011-0.1199265,0.2824229-2.5477571,2.8260603-4.0280743    C1.2866554,4.3194995,1.0161337,1.8916692,1.0042325,1.7717425C0.9850076,1.5740006,1.050006,1.3780897,1.1832072,1.2306988    C1.3164083,1.0842234,1.5059109,1,1.7041104,1c6.1043634,0,7.4322557,4.567287,7.4450722,4.613061    c0.0334148,0.122673,0.0334148,0.2508388,0,0.3735123C9.1363659,6.0323467,7.8084741,10.5996342,1.7041104,10.5996342z     M2.636518,2.4482758C2.9793622,3.275862,3.8106103,4.5144949,5.7971835,5.127861    C6.0915074,5.219408,6.2924533,5.491303,6.2924533,5.7998171c0,0.3085136-0.2009459,0.5804086-0.4952698,0.6719561    C3.8147299,7.0842233,2.9816508,8.3256025,2.6378913,9.1513577c3.6472383-0.3433018,4.8194995-2.6594443,5.0900216-3.3515406    C7.4592218,5.1113825,6.2883339,2.7906623,2.636518,2.4482758z"></path></g><g><path d="M23.45434,10.3579493c-0.3881607,0-0.703083-0.3149223-0.703083-0.7030821V1.9447665    c0-0.3881599,0.3149223-0.7030821,0.703083-0.7030821c0.3881588,0,0.7030811,0.3149222,0.7030811,0.7030821v7.7101007    C24.1574211,10.0430269,23.8424988,10.3579493,23.45434,10.3579493z"></path></g></g></svg>