<?xml version="1.0" encoding="utf-8"?>
<!-- Generator: Adobe Illustrator 22.0.1, SVG Export Plug-In . SVG Version: 6.00 Build 0)  -->
<svg version="1.1" id="Livello_1" xmlns="http://www.w3.org/2000/svg" xmlns:xlink="http://www.w3.org/1999/xlink" x="0px" y="0px"
	 viewBox="0 0 150 150" style="enable-background:new 0 0 150 150;" xml:space="preserve">
<style type="text/css">
	.st0{fill:none;stroke:#000000;stroke-width:7;stroke-miterlimit:10;}
</style>
<g>
	<path class="st0" d="M103.7,24.6c-4.8,4.8-14.8,2.7-22.3-4.8l-8.8,8.8l44,44L134.1,55L103.7,24.6z"/>
	<g>
		
			<rect x="115.1" y="28.4" transform="matrix(0.7071 -0.7071 0.7071 0.7071 9.4562 93.0388)" class="st0" width="3.9" height="13.5"/>
		
			<rect x="11.9" y="83" transform="matrix(0.7071 -0.7071 0.7071 0.7071 -45.1433 70.4148)" class="st0" width="101.1" height="13.5"/>
	</g>
</g>
<g>
	<path class="st0" d="M102,77.2l36.2,28.1c0,0-11-7-24.6,2.2S100,130.1,100,130.1l-28.8-31"/>
	<polygon class="st0" points="101.8,89 85.1,100.8 95.1,110.8 109,95.2 	"/>
	<g>
		<polygon class="st0" points="68.7,93 71.1,99.1 102,77.2 92.3,69.5 		"/>
		<polygon class="st0" points="40.2,55.2 48.7,76.7 62.7,77.7 63.3,79.3 81.6,61 29.7,19.9 17.8,32.8 26.3,54.2 		"/>
	</g>
</g>
</svg>
