<?xml version="1.0" encoding="utf-8"?>
<!-- Generator: Adobe Illustrator 22.0.1, SVG Export Plug-In . SVG Version: 6.00 Build 0)  -->
<svg version="1.1" id="Livello_1" xmlns="http://www.w3.org/2000/svg" xmlns:xlink="http://www.w3.org/1999/xlink" x="0px" y="0px"
	 viewBox="0 0 28.3 28.3" style="enable-background:new 0 0 28.3 28.3;" xml:space="preserve">
<style type="text/css">
	.st0{opacity:0.621;fill:#010101;stroke:#010101;stroke-width:0.4286;enable-background:new    ;}
	.st1{opacity:0.621;fill:#010101;stroke:#010101;stroke-width:0.8099;enable-background:new    ;}
</style>
<g>
	<path id="path828" inkscape:connector-curvature="0" class="st0" d="M10.4,20.5c-1.7,0-2.1-0.1-2.1-0.2c0-0.2,0.4-0.2,3.9-0.2
		l3.6,0l0.2-0.4c0.1-0.2,0.2-0.5,0.1-0.5c-0.1-0.2-0.4-0.2-4.4-0.3l-3.9,0l-0.1-0.4C7.3,17,6.1,13.1,6.1,13C6,13,5.4,13,4.7,13
		c-0.7,0-1.3-0.1-1.4-0.1c-0.1-0.1-0.1-0.2,0.1-0.3c0.1,0,0.8,0,1.6,0l1.4,0l0.3,0.9L7,14.5l4.9,0c5.2,0,5.2,0,5.2,0.3
		c0,0.1-0.2,0.8-0.5,1.6c-0.6,1.8-0.6,1.8-0.4,1.9c0.1,0,0.2,0.1,0.3,0.1c0.1,0,0.2,0,0.2,0.1c0,0.1-0.1,0.7-0.4,1.4
		c-0.2,0.4-0.2,0.5-0.4,0.6c-0.1,0-0.7,0.1-1.4,0.1c-0.7,0-1.5,0-1.8,0C12.4,20.5,11.4,20.5,10.4,20.5z M9.3,18.2c0,0,0-0.2,0-0.4
		c0-0.4-0.4-2.7-0.5-2.7c-0.1-0.1-1.3-0.1-1.4,0c-0.1,0.1-0.1,0.2,0,0.5c0.1,0.4,0.8,2.6,0.8,2.7C8.3,18.4,9.2,18.3,9.3,18.2
		L9.3,18.2z M11,18c0-0.5-0.1-2.4-0.2-2.7l0-0.2l-0.5,0c-0.8,0-0.8,0-0.9,0.3c0,0.2,0.4,2.5,0.5,2.8c0.1,0.2,0.2,0.2,0.7,0.2l0.4,0
		L11,18L11,18z M12.4,18.3c0.2-0.1,0.2-0.1,0.4-1.8c0.1-1,0.1-1.3,0.1-1.4c-0.1-0.1-0.3-0.1-0.8-0.1l-0.7,0l0,1.5
		c0,1.1,0.1,1.6,0.1,1.6C11.6,18.3,12.1,18.4,12.4,18.3L12.4,18.3z M14.5,16.9c0.2-0.8,0.3-1.4,0.3-1.6l0-0.2l-0.7,0
		c-0.4,0-0.7,0-0.7,0c0,0-0.1,0.5-0.1,1.1c-0.1,0.6-0.1,1.3-0.1,1.6c0,0.5,0,0.5,0.6,0.5l0.4,0L14.5,16.9z M15.3,18.2
		c0.3-0.2,1.2-2.9,1.1-3.1c0-0.1-0.2-0.1-0.5-0.1l-0.5,0l-0.3,1.2c-0.2,0.7-0.3,1.4-0.4,1.6c0,0.3,0,0.4,0.1,0.4
		C15.1,18.4,15.2,18.3,15.3,18.2L15.3,18.2z"/>
	<path id="path830" inkscape:connector-curvature="0" class="st0" d="M8.7,22.5c-0.1-0.1-0.3-0.3-0.3-0.4c-0.1-0.2-0.1-0.2,0-0.5
		c0.2-0.5,0.7-0.7,1.1-0.5c0.6,0.3,0.7,1.2,0,1.5C9.3,22.8,9,22.7,8.7,22.5L8.7,22.5z M9.5,22.2c0.1-0.1,0.1-0.5,0-0.6
		c-0.1-0.1-0.5-0.1-0.6,0c-0.2,0.2-0.1,0.6,0.1,0.7C9.1,22.3,9.4,22.3,9.5,22.2L9.5,22.2z"/>
	<path id="path832" inkscape:connector-curvature="0" class="st0" d="M14.6,22.8c-0.2-0.2-0.5-0.5-0.5-0.7c0-0.4,0.5-0.9,0.9-0.9
		c0.3,0,0.6,0.2,0.7,0.6c0.1,0.3,0.1,0.3,0,0.6C15.6,22.9,15.1,23.1,14.6,22.8L14.6,22.8z M15.3,22.4c0,0,0-0.2,0-0.4
		c0-0.3,0-0.3-0.2-0.3c-0.3,0-0.5,0-0.6,0.2c-0.1,0.2,0,0.5,0.2,0.6C14.9,22.5,15.2,22.5,15.3,22.4z"/>
	<path id="path834" inkscape:connector-curvature="0" class="st0" d="M17.8,19.3c-0.1-0.1,0-0.2,0.2-0.2c0.2,0.1,0.6-0.1,0.8-0.4
		c0.4-0.5,0.9-1.7,1-2.8c0.1-0.7,0.1-0.7-0.6-0.7c-0.3,0-0.6,0-0.8,0c-0.6-0.1-0.2-0.2,0.7-0.2H20l0-0.2c0-0.1,0-0.7,0.1-1.3l0-1.1
		l-0.3,0c-0.2,0-1,0-1.9,0l-1.6,0l0,0.7c0,0.4,0,0.7-0.1,0.8c-0.1,0.1-0.1-0.1-0.2-0.9c0-0.2,0-0.5-0.1-0.5c0,0-0.6,0-1.3-0.1
		l-1.2,0l0,0.8c0.1,0.9,0,1.1-0.2,0.2c-0.1-0.8-0.1-0.8-0.2-0.9c-0.1,0-0.5-0.1-0.9-0.1l-0.8,0l0,0.8c0,0.9,0,0.9-0.2,0.2
		c-0.2-1,0-2.4,0.3-3.4c0.7-2.1,2.9-4,4.9-4.4c1-0.2,2.6-0.2,3.5,0.1c1,0.3,2.3,1.1,3.1,1.9c1.2,1.3,1.8,2.6,1.9,4.4
		c0.1,2-0.6,3.8-2.1,5.3c-1.1,1.1-2.6,1.8-4.3,2C18,19.3,17.8,19.3,17.8,19.3L17.8,19.3z M19.9,18.7c0.3-0.1,0.6-0.4,1-0.8
		c0.9-0.9,1.5-1.9,1.4-2.4l0-0.2l-1,0c-0.7,0-1,0-1.1,0.1c-0.1,0-0.2,0.5-0.4,1.1c-0.1,0.6-0.4,1.3-0.5,1.6
		c-0.1,0.3-0.2,0.6-0.2,0.7C19.1,18.9,19.4,18.9,19.9,18.7L19.9,18.7z M21.5,18.3c1-0.5,2.6-2.3,2.6-2.8c0-0.2,0-0.2-0.7-0.2l-0.7,0
		l-0.1,0.4c-0.2,0.5-0.5,1-1.1,1.9c-0.2,0.4-0.5,0.7-0.5,0.8C20.9,18.5,21.1,18.5,21.5,18.3L21.5,18.3z M22.6,14.7
		c0.1-0.5,0.2-1.1,0.3-1.8l0-0.5h-1.3h-1.3l0,0.3c0,0.2-0.1,0.8-0.1,1.3l0,1h1.2h1.2L22.6,14.7z M24.7,14.3c0.1-0.5,0.2-0.9,0.2-1.3
		l0-0.6l-0.6,0c-0.3,0-0.7,0-0.9,0l-0.3,0l-0.2,1c-0.1,0.5-0.2,1.1-0.2,1.2c-0.1,0.3,0,0.4,1.1,0.4l0.6,0L24.7,14.3z M13.4,11.1
		c0.1-0.6,0.1-1.2,0.1-1.3l0-0.2h-0.7c-0.7,0-0.7,0-0.9,0.2c-0.3,0.3-0.5,1.4-0.5,2.2l0,0.3h0.9h0.9L13.4,11.1z M16.1,11.3
		c0-0.5,0-1.1,0-1.3l0-0.4l-0.3-0.1c-0.2,0-0.7,0-1.1,0l-0.8,0l-0.1,0.3c-0.1,0.4-0.3,1.6-0.3,2l0,0.3h1.3h1.3L16.1,11.3z M20.2,12
		c0-0.5-0.2-2.4-0.3-2.4c0,0-0.6-0.1-1.7-0.1c-1.4,0-1.6,0-1.7,0.1c-0.1,0.1-0.1,0.5-0.3,2.3l0,0.3h2h2L20.2,12L20.2,12z M22.9,11.6
		c-0.1-0.7-0.2-1.7-0.4-1.9c-0.1-0.2-0.4-0.2-1.5-0.2h-0.8l0,1.1c0,0.6,0.1,1.2,0.1,1.3l0,0.3h1.3h1.3L22.9,11.6z M24.9,11.6
		c0-0.7-0.3-1.7-0.5-1.9c-0.1-0.1-0.2-0.1-0.9-0.2l-0.7,0l0,0.2c0,0.1,0.1,0.6,0.1,1.1c0.1,0.5,0.1,1,0.1,1.1l0,0.3H24h0.9
		L24.9,11.6z M14,8.8c0.3-0.6,0.5-1,1-1.7c0.4-0.6,0.5-0.7,0.2-0.7c-0.5,0-1.8,1-2.6,2.1c-0.4,0.5-0.5,0.8-0.4,0.9
		c0,0,0.4,0.1,0.8,0.1l0.7,0L14,8.8z M16.2,9.2c0.1,0,0.1-0.3,0.2-0.5c0.1-0.6,0.4-1.5,0.6-2.1c0.2-0.6,0.3-0.8,0-0.8
		c-0.6-0.1-2.1,1.4-2.7,2.5c-0.5,0.9-0.4,1,0.8,1C15.8,9.3,16.1,9.3,16.2,9.2L16.2,9.2z M19.8,9.2C19.9,9.1,19.9,9,19.9,9
		c0,0-0.1-0.4-0.2-0.9c-0.4-1.6-0.9-2.5-1.3-2.5c-0.3,0-0.4,0-0.7,0.2c-0.5,0.4-0.9,1.7-1.2,3.3l0,0.2h1.6
		C19.6,9.3,19.7,9.3,19.8,9.2L19.8,9.2z M22.2,9.3c0.2-0.1,0.2-0.3-0.1-0.9c-0.6-1.2-2-2.5-2.7-2.5c-0.2,0-0.2,0.2,0,0.8
		C19.6,7.3,19.9,8,20,8.8l0.1,0.5h1C21.6,9.3,22.1,9.3,22.2,9.3L22.2,9.3z M24,9.3c0.2-0.1,0.1-0.4-0.4-1.1c-0.8-1-1.9-1.9-2.5-1.9
		c-0.3,0-0.3,0.2,0.4,1c0.2,0.2,0.5,0.8,0.7,1.2l0.4,0.8l0.6,0C23.6,9.3,23.9,9.3,24,9.3L24,9.3z"/>
	<path id="path836" inkscape:connector-curvature="0" class="st1" d="M9.9,20.6c-1.3,0-1.6-0.1-1.6-0.3c0-0.3,0.2-0.3,4.8-0.3l2.7,0
		l0.1-0.3c0.1-0.1,0.1-0.4,0.2-0.5c0-0.2,0-0.2,0-0.2c0,0-0.2-0.1-0.3-0.1c-0.3,0-2.5-0.1-4.3-0.1c-0.8,0-1.9,0-2.5,0l-1,0l-0.3-0.8
		C7.3,17,6.8,15.4,6.3,14L6,13.1l-0.3,0c-0.1,0-0.6,0-1-0.1c-1.1-0.1-1.4-0.1-1.5-0.1c-0.1-0.1-0.1-0.2,0-0.3c0.1-0.1,0.1-0.1,1.6,0
		c0.8,0,1.5,0,1.5,0c0.1,0,0.1,0.2,0.3,0.9L7,14.4l4.3,0c5,0,5.6,0,5.7,0.2c0.1,0.1,0.1,0.3-0.5,2.1c-0.4,1.2-0.4,1.3-0.4,1.4
		c0,0,0.3,0.1,0.4,0.1c0,0,0.1,0,0.2,0.1l0.1,0.1l0,0.2c-0.1,0.3-0.3,1.1-0.5,1.4c-0.1,0.1-0.2,0.3-0.2,0.3
		c-0.1,0.1-0.5,0.1-1.8,0.2C13,20.6,11.2,20.6,9.9,20.6L9.9,20.6z M9.1,18.2L9.1,18.2l0.1-0.4c0-0.5-0.4-2.6-0.5-2.7c0,0-1,0-1.2,0
		c-0.1,0-0.1,0-0.1,0.2c0,0.2,0.1,0.4,0.3,1.3c0.4,1.2,0.5,1.7,0.6,1.7C8.4,18.3,9,18.3,9.1,18.2L9.1,18.2z M11,18.1
		c0-0.4-0.1-2.7-0.2-2.9l0-0.1l-0.6,0c-0.7,0-0.7,0-0.7,0.3c0,0.3,0.3,2.3,0.5,2.7c0,0.1,0.1,0.2,0.1,0.2c0.1,0,0.4,0.1,0.7,0.1
		l0.2,0L11,18.1z M12.2,18.2c0.3-0.1,0.3,0,0.4-1.4c0.2-1.3,0.2-1.6,0.1-1.6c-0.1,0-0.4-0.1-1-0.1l-0.4,0l0,1c0,1.2,0.1,2,0.1,2
		c0,0.1,0.2,0.1,0.3,0.1C12,18.3,12.1,18.3,12.2,18.2L12.2,18.2z M15.2,18.2c0.1,0,0.1-0.1,0.2-0.2c0.3-0.6,1-2.6,0.9-2.8
		c0-0.1-0.2-0.1-0.6-0.1l-0.3,0l-0.1,0.5c-0.4,1.5-0.6,2.4-0.5,2.5c0,0,0.2,0.1,0.3,0.1C15.1,18.3,15.2,18.2,15.2,18.2L15.2,18.2z
		 M14.1,18.2c0,0,0.5-2,0.6-2.3c0-0.2,0.1-0.4,0.1-0.5l0-0.2l-0.6,0c-0.3,0-0.6,0-0.6,0c0,0-0.2,1.6-0.3,2.3c0,0.5,0,0.7,0.1,0.8
		C13.3,18.2,14.1,18.2,14.1,18.2L14.1,18.2z"/>
	<path id="path838" inkscape:connector-curvature="0" class="st1" d="M14.7,22.9c-0.3-0.2-0.6-0.5-0.6-0.8c0-0.3,0.3-0.6,0.6-0.8
		c0.2-0.1,0.5-0.1,0.7,0c0.2,0.1,0.5,0.5,0.5,0.7c0,0.2-0.1,0.6-0.3,0.8C15.3,23,14.9,23,14.7,22.9z M15.3,22.4c0.1,0,0.1-0.4,0-0.5
		c0-0.1,0-0.1-0.3-0.1c-0.3,0-0.4,0.1-0.4,0.3c0,0.2,0.1,0.3,0.2,0.3C14.9,22.5,15.2,22.4,15.3,22.4z"/>
	<path id="path840" inkscape:connector-curvature="0" class="st1" d="M9.1,22.7c-0.2,0-0.3-0.1-0.5-0.3c-0.2-0.2-0.3-0.4-0.3-0.6
		c0-0.1,0.2-0.5,0.3-0.6c0.3-0.4,0.9-0.4,1.2,0c0.2,0.2,0.3,0.3,0.3,0.6c0,0.2,0,0.3-0.1,0.4C9.8,22.6,9.4,22.8,9.1,22.7z M9.3,22.2
		c0.1,0,0.1-0.1,0.2-0.1c0.1-0.1,0-0.4,0-0.5c0-0.1-0.1-0.1-0.3-0.1c-0.2,0-0.3,0.1-0.4,0.2c0,0.1,0,0.3,0.1,0.4
		C9,22.2,9.1,22.2,9.3,22.2L9.3,22.2z"/>
	<path id="path842" inkscape:connector-curvature="0" class="st1" d="M17.7,19.3c-0.1-0.1-0.1-0.2,0-0.2c0,0,0.1,0,0.3,0
		c0.6,0,1-0.4,1.4-1.6c0.2-0.5,0.4-1.5,0.4-1.9c0-0.2,0-0.2-0.7-0.2c-0.8,0-1.1-0.1-1-0.2c0,0,0-0.1,0.1-0.1c0,0,0.4,0,0.9,0l0.8,0
		l0-0.1c0-0.1,0-0.6,0-1.2l0-1.1l-0.1,0c-0.1,0-0.9,0-1.8,0l-1.7,0l0,0.7c0,0.7,0,0.8-0.1,0.8c0,0-0.1,0-0.1-0.1
		c0,0-0.2-1.2-0.2-1.4c0,0-0.1,0-0.2,0c-0.1,0-0.6,0-1.1,0c-0.5,0-0.9,0-0.9,0l-0.1,0l0,0.7c0,0.8,0,0.9-0.1,0.8
		c-0.1,0-0.1-0.1-0.2-0.7c-0.1-0.6-0.1-0.7-0.2-0.7c-0.1,0-0.7-0.1-1.2-0.1l-0.4,0l0,0.7c0,0.7,0,0.7-0.1,0.7
		c-0.1,0-0.3-0.6-0.3-1.4c0-2.1,0.6-3.6,2.1-5.1c1-1,2.3-1.7,3.4-1.9c0.9-0.2,2.3-0.1,3.2,0c1.3,0.3,2.8,1.3,3.8,2.5
		c1,1.3,1.5,2.7,1.5,4.4c0,1.1-0.2,2-0.7,3c-0.8,1.7-2.3,2.9-4.1,3.5C19.4,19.3,17.9,19.5,17.7,19.3L17.7,19.3z M19.7,18.7
		c0.3-0.1,0.6-0.4,1.1-0.8c0.9-0.9,1.4-1.7,1.4-2.3c0-0.2,0-0.2-0.1-0.2c-0.1,0-1.6,0-1.8,0c-0.1,0-0.1,0-0.2,0.2
		c0,0.1-0.2,0.6-0.3,1s-0.3,1-0.4,1.3c-0.3,0.9-0.3,0.9-0.1,0.9C19.4,18.8,19.6,18.7,19.7,18.7L19.7,18.7z M21.5,18.2
		c0.5-0.2,1-0.6,1.5-1.2c0.6-0.6,1-1.3,1-1.5c0-0.1,0-0.1-0.1-0.1c-0.1,0-0.4,0-0.7,0l-0.5,0l-0.1,0.2c-0.2,0.5-0.5,1-1.1,1.9
		C21.1,18,21,18.3,21,18.3C21,18.4,21.2,18.3,21.5,18.2L21.5,18.2z M22.6,14.7c0.1-0.6,0.3-1.8,0.3-2.1v-0.1h-1.2h-1.2l0,0.1
		c0,0.3-0.1,2.4-0.1,2.4c0,0,0.5,0,1.1,0l1.1,0L22.6,14.7z M24.5,14.6c0.2-0.6,0.3-1.1,0.3-1.5c0-0.2,0-0.4,0-0.5l0-0.2l-0.8,0
		c-0.4,0-0.8,0-0.8,0c-0.1,0-0.1,0.1-0.1,0.3c-0.1,0.5-0.3,1.6-0.3,1.8c-0.1,0.2,0,0.2,0.1,0.3c0.1,0,0.7,0.1,1.1,0.1l0.4,0
		L24.5,14.6z M13.2,12.1c0,0,0.1-0.6,0.1-1.2s0.1-1.2,0.1-1.2c0-0.1,0-0.1-0.7-0.1l-0.7,0l-0.1,0.1c-0.2,0.2-0.5,1.2-0.5,2.1l0,0.4
		h0.9C13.1,12.2,13.2,12.1,13.2,12.1L13.2,12.1z M16,11.9c0-0.4,0.1-2.2,0-2.2c0,0-0.1-0.1-0.3-0.1c-0.3,0-1.7,0-1.8,0
		c0,0-0.1,0.1-0.1,0.3c-0.1,0.4-0.2,1.4-0.3,1.8l0,0.4h1.2H16L16,11.9z M20.1,11.7c0-0.7-0.2-2-0.2-2.1c0,0-2.9,0-3.1,0
		c-0.1,0-0.2,0-0.2,0c0,0-0.1,0.1-0.1,0.3c0,0.2-0.2,1.8-0.2,2.1v0.1h1.9h1.9L20.1,11.7z M22.9,11.8c0-0.6-0.2-1.4-0.3-1.9
		c-0.1-0.3-0.2-0.4-1.4-0.4h-0.8l0,0.1c0,0,0,0.3,0,0.7c0,0.7,0.1,1.5,0.1,1.7l0,0.1h1.2h1.2L22.9,11.8z M24.9,11.9
		c-0.1-0.8-0.2-1.4-0.3-1.8c-0.1-0.3-0.2-0.4-0.3-0.4c-0.1,0-1.3-0.1-1.4-0.1c0,0,0,0.1,0,0.2c0,0.1,0.1,0.6,0.1,1.2
		c0.1,0.5,0.1,1,0.1,1.1l0,0.1H24h0.8L24.9,11.9z M14,8.7c0.3-0.6,0.5-0.9,0.9-1.6c0.3-0.5,0.4-0.7,0.4-0.7c0,0-0.1,0-0.1,0
		c-0.4,0-1.4,0.7-2.1,1.5c-0.4,0.4-0.7,0.8-0.8,1c-0.1,0.3-0.1,0.3,0.8,0.3l0.5,0L14,8.7z M16.1,9.2c0.1,0,0.1-0.2,0.2-0.7
		c0.1-0.5,0.3-1.1,0.5-1.7c0.3-0.8,0.3-0.9,0.1-0.9c-0.5,0.1-1.7,1.1-2.3,2.1c-0.3,0.5-0.5,1-0.5,1.1c0,0.2,0.3,0.2,1.2,0.2
		C15.7,9.2,16.1,9.2,16.1,9.2L16.1,9.2z M19.7,9.2c0,0,0.1-0.1,0.1-0.1C19.9,9,19.9,9,19.7,8.4C19.4,7,19,6,18.6,5.7
		c-0.1-0.1-0.1-0.1-0.3-0.1c-0.2,0-0.2,0-0.4,0.1c-0.4,0.2-0.7,0.9-1,1.8c-0.1,0.4-0.4,1.5-0.4,1.6v0.1l1.5,0
		C19.1,9.2,19.6,9.2,19.7,9.2z M22.1,9.2c0.1-0.1,0.1-0.2,0-0.4c-0.5-1.3-2-2.9-2.8-2.9h-0.1l0,0.2c0,0.1,0.1,0.4,0.2,0.6
		C19.7,7.4,20,8.2,20.1,9l0.1,0.3l0.9,0C21.8,9.2,22,9.2,22.1,9.2z M23.9,9.2c0.1,0,0.1,0,0.2-0.1c0-0.2-0.4-0.9-1.1-1.6
		c-0.7-0.7-1.4-1.2-1.7-1.2c-0.1,0-0.2,0-0.2,0c0,0.1,0.2,0.3,0.4,0.7c0.3,0.5,0.6,0.8,1,1.6l0.3,0.6l0.5,0
		C23.5,9.3,23.8,9.3,23.9,9.2L23.9,9.2z"/>
</g>
</svg>
