<?xml version="1.0" encoding="utf-8"?>
<!-- Generator: Adobe Illustrator 22.0.1, SVG Export Plug-In . SVG Version: 6.00 Build 0)  -->
<svg version="1.1" id="Livello_1" xmlns="http://www.w3.org/2000/svg" xmlns:xlink="http://www.w3.org/1999/xlink" x="0px" y="0px"
	 viewBox="0 0 150 150" style="enable-background:new 0 0 150 150;" xml:space="preserve">
<style type="text/css">
	.st0{fill:none;stroke:#000000;stroke-width:7;stroke-miterlimit:10;}
</style>
<g>
	<g>
		<g>
			<circle class="st0" cx="33.7" cy="117.9" r="7.4"/>
			<circle class="st0" cx="78.7" cy="117.9" r="7.4"/>
			<line class="st0" x1="39.5" y1="113.4" x2="72.9" y2="113.4"/>
			<polyline class="st0" points="84.5,113.4 91,81.4 24,72.2 21.2,63.9 1,63.9 			"/>
			<polyline class="st0" points="24,72.2 24,98.9 87.3,99.9 			"/>
		</g>
		<line class="st0" x1="37.6" y1="74.1" x2="37.6" y2="99.1"/>
		<line class="st0" x1="58" y1="76.9" x2="57.3" y2="99.4"/>
		<line class="st0" x1="77.6" y1="79.6" x2="75.9" y2="99.7"/>
		<line class="st0" x1="89.2" y1="90.7" x2="24" y2="85.6"/>
	</g>
	<g>
		<path class="st0" d="M58.2,67.6c0-23.7,19.2-42.9,42.9-42.9S144,43.9,144,67.6s-19.2,42.9-42.9,42.9"/>
		<line class="st0" x1="101.1" y1="110.4" x2="101.1" y2="24.7"/>
		<line class="st0" x1="144" y1="67.6" x2="58.2" y2="67.6"/>
		<path class="st0" d="M101.1,92.2c23.7,0,42.9-11,42.9-24.7s-19.2-24.7-42.9-24.7s-42.9,11-42.9,24.7h42.9l0,42.9
			c13.6,0,24.7-19.2,24.7-42.9s-11-42.9-24.7-42.9S76.4,43.9,76.4,67.6"/>
	</g>
</g>
</svg>
