<?xml version="1.0" encoding="UTF-8" standalone="no"?>
<!-- Created with Inkscape (http://www.inkscape.org/) -->

<svg
   xmlns:dc="http://purl.org/dc/elements/1.1/"
   xmlns:cc="http://creativecommons.org/ns#"
   xmlns:rdf="http://www.w3.org/1999/02/22-rdf-syntax-ns#"
   xmlns:svg="http://www.w3.org/2000/svg"
   xmlns="http://www.w3.org/2000/svg"
   xmlns:sodipodi="http://sodipodi.sourceforge.net/DTD/sodipodi-0.dtd"
   xmlns:inkscape="http://www.inkscape.org/namespaces/inkscape"
   width="82.919014mm"
   height="82.919014mm"
   viewBox="0 0 82.919014 82.919014"
   version="1.1"
   id="svg8"
   sodipodi:docname="online_shopping.svg"
   inkscape:version="0.92.4 (5da689c313, 2019-01-14)">
  <defs
     id="defs2" />
  <sodipodi:namedview
     id="base"
     pagecolor="#ffffff"
     bordercolor="#666666"
     borderopacity="1.0"
     inkscape:pageopacity="0.0"
     inkscape:pageshadow="2"
     inkscape:zoom="0.98994949"
     inkscape:cx="-416.6438"
     inkscape:cy="-14.145779"
     inkscape:document-units="mm"
     inkscape:current-layer="layer1"
     showgrid="false"
     inkscape:window-width="2736"
     inkscape:window-height="1730"
     inkscape:window-x="-11"
     inkscape:window-y="-11"
     inkscape:window-maximized="1" />
  <metadata
     id="metadata5">
    <rdf:RDF>
      <cc:Work
         rdf:about="">
        <dc:format>image/svg+xml</dc:format>
        <dc:type
           rdf:resource="http://purl.org/dc/dcmitype/StillImage" />
        <dc:title></dc:title>
      </cc:Work>
    </rdf:RDF>
  </metadata>
  <g
     inkscape:label="Layer 1"
     inkscape:groupmode="layer"
     id="layer1"
     transform="translate(-56.093867,-66.04639)">
    <path
       style="fill:#000000;stroke-width:0.35277775"
       d="m -139.45056,168.70676 c -0.48507,-0.24121 -1.17425,-1.03559 -1.53152,-1.76529 -0.53355,-1.08978 -0.58002,-1.52623 -0.26017,-2.44375 0.47743,-1.36955 1.36,-2.38618 2.11095,-2.43158 0.30947,-0.0187 -0.31044,-0.21714 -1.3776,-0.44097 -1.8057,-0.37873 -1.94764,-0.48244 -2.04648,-1.49533 -0.0601,-0.61588 0.10599,-1.2645 0.38258,-1.49405 0.33887,-0.28123 3.76776,-0.43433 11.17843,-0.49912 l 10.68963,-0.0934 0.2935,-0.79375 0.29349,-0.79375 h -11.60509 c -12.49387,0 -12.34881,0.0208 -12.90058,-1.85417 -0.12813,-0.43542 -1.25763,-4.00635 -2.51,-7.93541 l -2.27703,-7.14375 h -3.83791 c -4.05593,0 -4.94665,-0.31762 -4.94665,-1.76389 0,-1.52265 0.82257,-1.76389 6.01429,-1.76389 5.66087,0 5.44419,-0.12596 6.5239,3.79236 l 0.60757,2.20486 h 14.52323 c 10.82548,0 14.63102,0.10778 14.94657,0.42333 0.68626,0.68627 0.50393,1.7882 -0.98778,5.96995 -0.77611,2.17569 -1.41111,4.07718 -1.41111,4.22554 0,0.14836 0.31767,0.37057 0.70593,0.4938 1.41798,0.45005 1.47877,1.33685 0.3187,4.64904 -0.59947,1.71157 -1.20646,3.23523 -1.34888,3.38591 -0.14242,0.15068 -1.04626,0.3672 -2.00854,0.48117 l -1.74959,0.20721 1.15924,1.15925 c 2.56432,2.56431 0.41326,6.7029 -3.13764,6.03674 -3.49465,-0.6556 -4.07847,-5.60856 -0.81839,-6.94288 0.40394,-0.16533 -2.08444,-0.293 -5.82083,-0.29864 -5.60289,-0.008 -6.40709,0.0563 -5.68328,0.45744 2.36741,1.31215 2.35996,5.18656 -0.0123,6.41332 -1.18988,0.61531 -2.3124,0.63267 -3.47661,0.0537 z m 3.41684,-1.37642 c 1.6444,-1.54484 0.50476,-4.52462 -1.73048,-4.52462 -1.27567,0 -2.7447,1.41611 -2.7447,2.64583 0,1.20302 1.46977,2.64583 2.69526,2.64583 0.52989,0 1.33086,-0.34517 1.77992,-0.76704 z m -2.91952,-1.129 c -0.42278,-1.10176 0.005,-1.80812 1.09501,-1.80812 0.93537,0 1.0535,0.11867 1.0535,1.05833 0,0.89284 -0.15202,1.07582 -0.97214,1.17015 -0.62039,0.0714 -1.04604,-0.0807 -1.17637,-0.42036 z m 17.73619,1.129 c 1.6444,-1.54484 0.50475,-4.52462 -1.73049,-4.52462 -1.27566,0 -2.74469,1.41611 -2.74469,2.64583 0,1.20302 1.46976,2.64583 2.69525,2.64583 0.5299,0 1.33086,-0.34517 1.77993,-0.76704 z m -2.91952,-1.129 c -0.42279,-1.10176 0.005,-1.80812 1.09501,-1.80812 0.93536,0 1.0535,0.11867 1.0535,1.05833 0,0.89284 -0.15202,1.07582 -0.97215,1.17015 -0.62039,0.0714 -1.04604,-0.0807 -1.17636,-0.42036 z m 5.46231,-5.99617 c 0.57792,-0.69635 2.17775,-5.5427 1.95088,-5.90978 -0.10508,-0.17002 -0.56918,-0.30912 -1.03135,-0.30912 -0.46217,0 -0.92689,-0.14009 -1.03272,-0.31133 -0.10583,-0.17123 0.59482,-2.54922 1.55699,-5.28444 1.6691,-4.74481 1.71852,-4.98963 1.07673,-5.33311 -0.4257,-0.22783 -5.92011,-0.36 -14.96481,-0.36 h -14.29213 l -0.82492,-2.73403 -0.82493,-2.73403 -4.86589,-0.0983 c -4.5032,-0.091 -4.85694,-0.0516 -4.74563,0.52917 0.10579,0.55192 0.61762,0.63945 4.24959,0.72678 l 4.12932,0.0993 2.15046,6.77988 c 1.18275,3.72893 2.39133,7.53394 2.68574,8.45557 l 0.53529,1.67569 h 11.97717 c 13.24203,0 12.79505,-0.0852 11.81857,2.25188 l -0.53311,1.2759 h -10.44813 c -10.67557,0 -12.33336,0.1825 -11.43967,1.25933 0.60774,0.73228 22.26572,0.75187 22.87255,0.0207 z m -24.42333,-10.36403 c -0.71121,-2.27983 -1.29282,-4.42296 -1.29248,-4.7625 5.2e-4,-0.5193 0.33683,-0.61737 2.11729,-0.61737 1.16416,0 2.11714,0.0397 2.11773,0.0882 6e-4,0.0485 0.31809,1.72101 0.70555,3.71668 0.38747,1.99566 0.70449,4.0991 0.70449,4.6743 0,0.99846 -0.0693,1.04582 -1.52974,1.04582 h -1.52974 z m 3.47554,2.64583 c -0.0821,-0.24254 -0.41115,-1.90941 -0.73114,-3.70417 l -0.58178,-3.26319 h -1.19808 c -0.65894,0 -1.19807,0.11091 -1.19807,0.24647 0,0.13557 0.51001,1.80244 1.13335,3.70417 0.98935,3.01836 1.23448,3.45769 1.92921,3.45769 0.48115,0 0.7368,-0.17437 0.64651,-0.44097 z m 2.86819,1.22884 c -0.21834,-0.35329 -1.63711,-7.83528 -1.63782,-8.63717 -4.6e-4,-0.51771 0.33276,-0.61737 2.06435,-0.61737 h 2.0649 l 0.22816,2.69906 c 0.12548,1.48449 0.22815,3.62761 0.22815,4.7625 v 2.06344 h -1.39029 c -0.76466,0 -1.46551,-0.1217 -1.55745,-0.27046 z m 1.88941,-4.49204 v -3.70416 h -1.23472 c -0.6791,0 -1.23473,0.14121 -1.23473,0.3138 0,0.44661 1.05617,6.12414 1.23774,6.65356 0.0832,0.24253 0.39434,0.44097 0.69147,0.44097 0.45083,0 0.54024,-0.61302 0.54024,-3.70417 z m 2.68357,4.20448 c -0.11777,-0.30691 -0.21413,-2.45003 -0.21413,-4.7625 v -4.20448 h 2.11667 c 1.45868,0 2.11636,0.13709 2.11567,0.44098 -0.001,0.59939 -0.67555,6.51477 -0.90467,7.9375 -0.17117,1.06287 -0.28368,1.14652 -1.54202,1.14652 -0.91232,0 -1.42759,-0.18296 -1.57152,-0.55802 z m 2.40905,-2.52878 c 0.12927,-1.11566 0.32676,-2.78254 0.43888,-3.70417 l 0.20384,-1.67569 h -1.32812 -1.32812 l 0.22434,1.63674 c 0.12338,0.9002 0.22433,2.56708 0.22433,3.70416 0,1.79012 0.0892,2.06743 0.66491,2.06743 0.54702,0 0.70658,-0.35965 0.89994,-2.02847 z m 2.34604,1.96056 c 0.0167,-0.64175 0.21512,-2.75431 0.44097,-4.69459 l 0.41064,-3.52778 2.02848,-0.10579 c 2.4655,-0.1286 2.44869,-0.21674 1.02896,5.39746 l -0.98133,3.88056 -1.47902,0.10847 c -1.46575,0.10751 -1.47876,0.098 -1.4487,-1.05833 z m 2.4446,-1.43139 c 0.21199,-0.82462 0.61499,-2.31749 0.89554,-3.31749 0.68938,-2.45726 0.663,-2.59154 -0.50899,-2.59154 -1.1488,0 -1.22803,0.23196 -1.65685,4.85069 -0.2045,2.20259 -0.15956,2.55764 0.32369,2.55764 0.36453,0 0.69621,-0.52534 0.94661,-1.4993 z m 2.29444,2.21597 c -0.11614,-0.18792 0.30761,-2.33104 0.94167,-4.7625 l 1.15284,-4.42084 h 1.30974 c 0.72036,0 1.39499,0.13794 1.49919,0.30653 0.16624,0.269 -0.48715,2.30496 -2.47728,7.71917 -0.4353,1.18425 -0.72593,1.4993 -1.38305,1.4993 -0.45757,0 -0.92697,-0.15374 -1.04311,-0.34166 z m 2.58156,-4.42763 c 1.26668,-3.61226 1.28192,-3.69737 0.66167,-3.69737 -0.28387,0 -0.79807,1.40015 -1.37182,3.73543 -1.07941,4.39342 -0.83929,4.38056 0.71015,-0.0381 z m 5.34907,6.15967 c 0,-0.83306 -0.31064,-1.5009 -1.05568,-2.26958 -0.98161,-1.01276 -1.02568,-1.16863 -0.62821,-2.22165 0.57881,-1.53345 1.16778,-1.42372 1.96894,0.36683 0.36897,0.82461 1.00842,1.79903 1.421,2.16535 0.63166,0.56083 0.83887,0.59243 1.31173,0.19999 1.02137,-0.84767 2.52703,-4.4936 3.15552,-7.64106 l 0.22575,-1.13058 -2.58216,-0.10414 -2.58217,-0.10415 -0.11055,-1.14652 -0.11054,-1.14653 h 2.80048 2.80047 l 0.22049,-1.10243 c 0.12127,-0.60634 0.22048,-1.95571 0.22048,-2.99861 v -1.89618 h -4.58611 -4.58611 v 2.29305 2.29306 h -1.23472 c -1.16721,0 -1.23472,-0.0651 -1.23472,-1.19063 0,-0.65484 -0.0992,-1.68672 -0.22049,-2.29305 l -0.22048,-1.10243 h -2.8019 c -2.50103,0 -2.7828,0.0663 -2.62408,0.61736 0.0978,0.33955 0.22756,1.33173 0.28836,2.20486 l 0.11053,1.5875 h -1.23472 -1.23472 l -0.29538,-2.20486 -0.29539,-2.20486 h -1.77133 c -1.66035,0 -1.75894,0.0497 -1.57357,0.79375 0.10877,0.43656 0.30502,1.46843 0.43611,2.29305 l 0.23835,1.49931 h -1.27309 c -1.63637,0 -1.8157,-0.59234 -1.8157,-5.99722 0,-5.00329 0.88513,-8.06299 3.43569,-11.87639 2.18997,-3.27427 4.65559,-5.43696 8.20598,-7.19775 4.68814,-2.32507 9.21773,-2.94021 14.11111,-1.91636 16.500012,3.45233 22.761272,24.06355 10.940922,36.01603 -4.208222,4.25526 -8.273342,6.08776 -14.204122,6.40302 l -3.61597,0.19222 z m 8.81944,-0.90911 c 6.581822,-2.14718 11.812212,-7.76358 13.589462,-14.59238 0.79963,-3.07241 0.57005,-8.50145 -0.48382,-11.44134 -2.14784,-5.99165 -7.09737,-10.91395 -13.038452,-12.96673 -3.3274,-1.1497 -9.82863,-1.15521 -12.91964,-0.011 -6.23156,2.30685 -11.2911,7.47192 -13.2091,13.48462 -0.69845,2.18957 -1.05472,6.30605 -0.73905,8.5393 0.44072,3.11795 0.99474,3.32263 0.77756,0.28727 l -0.17967,-2.51114 2.60622,0.10463 c 2.48793,0.0999 2.61043,0.14466 2.69912,0.98658 0.29143,2.76637 0.51066,3.88055 0.76355,3.88055 0.15624,0 0.20414,-1.11704 0.10645,-2.48232 l -0.1776,-2.48232 3.66429,0.10107 3.6643,0.10107 0.10756,2.11667 c 0.15873,3.12357 0.77438,3.31989 0.77438,0.24694 v -2.54 h 5.44723 c 3.4912,0 5.53108,0.13566 5.68071,0.37777 0.12841,0.20778 0.12066,1.95403 -0.0172,3.88056 l -0.25073,3.50278 h -3.03111 c -3.65046,0 -3.56395,0.61791 0.10861,0.77579 l 2.46944,0.10616 -0.095,1.50249 c -0.0522,0.82637 -0.50622,2.80436 -1.00886,4.39553 -1.09384,3.46261 -2.72562,5.43661 -4.19022,5.06902 -0.66656,-0.1673 -0.87958,-0.0823 -0.87958,0.35093 0,0.49708 0.3338,0.53964 2.55764,0.32615 1.4067,-0.13504 3.74826,-0.63395 5.20347,-1.10869 z m -3.52777,-0.60345 c 0,-0.26124 0.27456,-1.0153 0.61013,-1.6757 0.33558,-0.6604 1.01414,-2.78823 1.5079,-4.7285 l 0.89777,-3.52778 3.07821,-0.10193 c 2.94576,-0.0975 3.07821,-0.0693 3.07821,0.65617 0,2.25585 -4.14296,7.66125 -6.9821,9.10967 -1.6946,0.86452 -2.19012,0.92517 -2.19012,0.26807 z m 4.87066,-3.75035 c 0.81678,-0.95188 3.24322,-4.69387 3.24322,-5.0016 0,-0.16395 -0.99568,-0.29809 -2.21263,-0.29809 h -2.21264 l -0.59137,2.85991 c -0.32525,1.57295 -0.89947,3.48267 -1.27606,4.24381 l -0.6847,1.3839 1.63662,-1.32537 c 0.90014,-0.72895 1.84404,-1.5671 2.09756,-1.86256 z m 0.421,2.48286 c 0,-0.18224 0.84064,-1.50301 1.86808,-2.93505 1.02744,-1.43204 2.15182,-3.34669 2.498622,-4.25477 l 0.63055,-1.65106 h 2.08748 c 1.81181,0 2.08749,0.0881 2.08749,0.66675 0,0.36671 -0.68597,1.59702 -1.52438,2.73402 -2.33272,3.16351 -7.647842,6.94429 -7.647842,5.44011 z m 6.382292,-5.40446 c 1.9373,-2.55703 1.89324,-2.37809 0.58558,-2.37809 -1.12636,0 -1.25796,0.1408 -2.61594,2.79875 l -1.429922,2.79875 1.305312,-1.04897 c 0.71792,-0.57694 1.68765,-1.55363 2.15497,-2.17044 z m -8.496842,-5.11212 c 0.001,-0.53357 0.10407,-2.27982 0.22868,-3.88055 l 0.22656,-2.91042 h 3.70364 3.703652 l -0.22396,2.55764 c -0.12317,1.4067 -0.39205,3.15295 -0.59751,3.88056 l -0.37356,1.32291 h -3.334812 -3.3348 l 0.002,-0.97014 z m 6.318652,-1.51666 c 0.21011,-0.97969 0.38201,-2.32907 0.38201,-2.99862 v -1.21735 h -2.796302 -2.7963 l -0.11412,2.99943 -0.11411,2.99944 2.52841,-7.1e-4 2.5284,-7.1e-4 0.382012,-1.78125 z m 1.26396,2.13403 c -0.11992,-0.19403 -0.12363,-0.50552 -0.008,-0.69221 0.11538,-0.18669 0.41069,-1.7345 0.65625,-3.43958 l 0.44647,-3.10016 2.53957,-0.10365 2.53958,-0.10365 v 1.5658 c 0,0.86119 -0.32388,2.61439 -0.71973,3.89601 l -0.71973,2.33021 h -2.25806 c -1.24194,0 -2.35618,-0.15875 -2.47609,-0.35277 z m 4.54444,-2.20486 c 0.27897,-1.01865 0.59693,-2.36803 0.70659,-2.99862 l 0.19938,-1.14652 h -1.73908 c -1.73786,0 -1.73923,9.5e-4 -1.94479,1.32291 -0.11313,0.72761 -0.33561,2.07698 -0.49439,2.99861 l -0.28869,1.6757 h 1.52689 1.52688 z m -37.879972,-7.40834 c 0.002,-1.51221 0.42291,-3.50543 1.1175,-5.29166 0.35788,-0.92036 0.49509,-0.97014 2.67394,-0.97014 h 2.29671 l -0.22606,1.4993 c -0.12434,0.82462 -0.32701,2.57087 -0.4504,3.88056 l -0.22433,2.38125 h -2.59466 -2.59467 l 0.002,-1.49931 z m 4.54126,-1.86649 c 0.21761,-1.46314 0.39566,-2.82164 0.39566,-3.0189 0,-0.20341 -0.64306,-0.31169 -1.48569,-0.25017 -1.40322,0.10246 -1.50853,0.18774 -1.8972,1.53636 -0.22634,0.78534 -0.52423,2.09502 -0.66199,2.91042 l -0.25047,1.48253 h 1.75201 1.75201 z m 1.56392,0.80816 c 0.11648,-1.4067 0.38498,-3.15295 0.59667,-3.88056 l 0.3849,-1.32291 h 3.1376 c 1.72568,0 3.22796,0.14621 3.3384,0.32491 0.11044,0.1787 0.096,1.92495 -0.0322,3.88055 l -0.23302,3.55565 h -3.70205 -3.70206 z m 6.36642,0.52917 c 0.12026,-0.72761 0.22041,-2.07698 0.22254,-2.99862 l 0.004,-1.67569 h -2.44567 c -2.83791,0 -2.53493,-0.42058 -3.36737,4.67431 l -0.21615,1.32291 h 2.79204 2.79206 z m 1.74654,-1.51019 c 0.11857,-1.94626 0.31067,-3.69251 0.42689,-3.88056 0.25532,-0.41311 9.92865,-0.46673 10.18222,-0.0564 0.097,0.157 0.28785,1.90325 0.42403,3.88056 l 0.24761,3.5951 h -5.74817 -5.74816 z m 10.11674,0.62824 c -0.009,-4.01075 0.22241,-3.82856 -4.71338,-3.71467 l -4.27764,0.0987 -0.10246,2.91042 -0.10246,2.91041 h 4.60038 4.60037 l -0.005,-2.20486 z m 1.64408,0.21136 c -0.12549,-1.48448 -0.22815,-3.23073 -0.22815,-3.88056 v -1.18149 h 3.1318 c 2.08709,0 3.246372,0.1471 3.475242,0.44097 0.44601,0.57266 1.15407,4.23416 1.15407,5.96786 v 1.35228 h -3.652402 -3.65241 z m 6.474622,0.77614 c 0,-0.66954 -0.1719,-2.01892 -0.38201,-2.99861 l -0.382012,-1.78125 -2.5284,-8.1e-4 -2.52841,-8.1e-4 0.10368,2.55843 c 0.057,1.40714 0.1711,2.75687 0.25351,2.99941 0.1021,0.30048 0.99631,0.44097 2.80674,0.44097 l 2.656902,3e-5 z m 1.65421,-0.10555 c -0.11423,-1.11566 -0.31714,-2.86191 -0.45092,-3.88056 l -0.24323,-1.85208 h 2.12261 c 1.31733,0 2.26781,0.17496 2.50536,0.46118 0.54971,0.66237 1.46753,4.39168 1.46753,5.96294 v 1.33699 h -2.59684 -2.59683 z m 4.47877,0.17638 c -0.10966,-0.63059 -0.42762,-1.97996 -0.70659,-2.99861 l -0.50721,-1.85208 h -1.51653 -1.51653 l 0.28939,1.67569 c 0.15916,0.92164 0.37697,2.27101 0.48403,2.99862 l 0.19466,1.32291 h 1.73908 1.73908 z m -36.468162,-7.05555 c 0.002,-0.24254 0.70433,-1.37419 1.56064,-2.51478 2.24507,-2.99041 5.87801,-5.86368 7.41397,-5.86368 0.79783,0 0.7097,0.21548 -1.04037,2.54358 -0.87287,1.16118 -2.01716,3.04828 -2.54285,4.19354 l -0.9558,2.08231 h -2.21965 c -1.54251,0 -2.21851,-0.13452 -2.21594,-0.44097 z m 4.91391,-2.82407 c 0.66739,-1.40569 1.27219,-2.71454 1.344,-2.90856 0.0718,-0.19403 -0.99018,0.81304 -2.35997,2.23794 -1.36979,1.42491 -2.49053,2.73459 -2.49053,2.91042 0,0.17583 0.51593,0.31885 1.14652,0.31784 1.07584,-0.002 1.22135,-0.15944 2.35998,-2.55764 z m 0.72683,2.54776 c 0,-2.76414 5.91904,-9.51326 8.34321,-9.51326 1.01279,0 1.02138,0.17487 0.10205,2.07766 -0.75311,1.55877 -2.09526,6.36539 -2.09526,7.50376 0,0.58223 -0.32719,0.64912 -3.175,0.64912 -2.95712,0 -3.175,-0.0492 -3.175,-0.71728 z m 5.87366,-2.45 c 0.25567,-1.25694 0.70511,-2.99041 0.99874,-3.85218 0.29363,-0.86176 0.47703,-1.6237 0.40754,-1.69318 -0.0695,-0.0695 -0.93651,0.60208 -1.92673,1.49237 -1.69872,1.52729 -4.29488,5.2368 -4.29488,6.13672 0,0.28055 0.69284,0.37821 2.17524,0.30664 l 2.17524,-0.10503 z m 1.35248,1.49159 c 0.41646,-2.78375 1.91145,-7.04845 2.87027,-8.18794 1.03569,-1.23085 2.53125,-1.43165 3.38975,-0.45511 0.98002,1.11476 2.05447,3.60066 2.7512,6.36534 1.08373,4.30031 1.45956,3.9534 -4.28297,3.9534 h -4.97895 z m 8.64886,0.52207 c 0,-0.24643 -0.32256,-1.61204 -0.71679,-3.03468 -1.29506,-4.67338 -2.80135,-6.73245 -3.9602,-5.41353 -0.88739,1.00995 -1.94044,3.3498 -2.52793,5.61697 -0.90089,3.47668 -1.10099,3.27931 3.32436,3.27931 2.90201,0 3.88056,-0.11299 3.88056,-0.44807 z m 1.28714,-1.58041 c -0.32831,-1.50371 -0.9896,-3.68651 -1.46956,-4.85068 -1.05617,-2.56181 -1.06136,-2.64583 -0.16335,-2.64583 1.84729,0 5.90656,3.83456 7.54958,7.13167 1.493402,2.99687 1.420832,3.09887 -2.20484,3.09887 h -3.11493 z m 5.76841,1.84036 c 0,-0.10346 -0.41534,-1.00776 -0.92298,-2.00954 -0.88043,-1.73744 -4.91449,-6.19356 -5.27792,-5.83013 -0.0952,0.0952 0.22916,1.5613 0.72084,3.25797 0.49167,1.69667 0.89395,3.46397 0.89395,3.92734 0,0.80171 0.11096,0.84248 2.29306,0.84248 1.26118,0 2.29305,-0.0847 2.29305,-0.18812 z m 0.95879,-1.70944 c -0.67992,-1.43172 -1.80879,-3.23689 -2.50861,-4.0115 -3.04862,-3.37446 0.22221,-2.76487 3.974122,0.74065 1.88479,1.76101 3.9257,4.46447 3.9257,5.20008 0,0.58704 -0.26774,0.67388 -2.0775,0.67388 h -2.0775 z m 3.933092,1.10381 c -0.5319,-0.9943 -4.187242,-4.85069 -4.597802,-4.85069 -0.16725,0 0.0847,0.5953 0.55978,1.32291 0.47513,0.7276 1.129622,1.9976 1.454432,2.82222 0.53461,1.3573 0.70504,1.49931 1.79937,1.49931 1.14423,0 1.18614,-0.0424 0.78422,-0.79375 z"
       id="path826"
       inkscape:connector-curvature="0" />
    <path
       style="opacity:0.62099998;fill:#000000;fill-opacity:1;stroke:#000000;stroke-width:0.42857143;stroke-miterlimit:4;stroke-dasharray:none;stroke-opacity:1"
       d="m 84.692219,124.37776 c -4.88216,-0.11409 -6.142114,-0.26441 -6.142114,-0.73278 0,-0.57684 1.10953,-0.64567 11.534849,-0.71552 l 10.495416,-0.0703 0.50718,-1.30804 c 0.27895,-0.71942 0.45889,-1.43391 0.39985,-1.58776 -0.25087,-0.65374 -1.30822,-0.71992 -12.860525,-0.80496 l -11.373385,-0.0837 -0.388011,-1.25837 c -1.198047,-3.88539 -4.891558,-15.36257 -4.968711,-15.43973 -0.05001,-0.05 -1.833123,-0.16112 -3.962477,-0.24691 -2.129356,-0.0858 -3.97116,-0.21756 -4.0929,-0.29279 -0.416502,-0.25742 -0.221671,-0.63415 0.392867,-0.75966 0.337817,-0.069 2.454592,-0.0672 4.703945,0.004 l 4.089736,0.12948 0.81299,2.69355 0.812993,2.69356 14.374061,0.0707 c 15.187527,0.0748 15.224507,0.077 15.224507,0.9345 0,0.21272 -0.63007,2.27206 -1.40015,4.57631 -1.79502,5.37108 -1.79332,5.36283 -1.1537,5.60601 0.27477,0.10447 0.70933,0.18994 0.96568,0.18994 0.25636,0 0.51627,0.13074 0.57759,0.29053 0.1348,0.3513 -0.33803,2.11045 -1.10607,4.11505 -0.44401,1.15887 -0.67343,1.51841 -1.06711,1.67232 -0.27583,0.10783 -2.159882,0.23145 -4.186779,0.27471 -2.026898,0.0433 -4.45067,0.099 -5.38616,0.12386 -0.935492,0.0249 -3.9971,-0.008 -6.803572,-0.074 z m -3.367257,-6.65753 c 0.08495,-0.085 0.133049,-0.64657 0.106881,-1.24793 -0.05388,-1.23823 -1.250619,-7.89029 -1.456467,-8.09574 -0.243748,-0.24327 -3.843841,-0.15358 -4.099513,0.10214 -0.187243,0.18728 -0.189095,0.4643 -0.0089,1.33659 0.220982,1.06989 2.234821,7.7043 2.438762,8.03429 0.124418,0.20131 2.803509,0.0865 3.019264,-0.12935 z m 5.160955,-0.83157 c -0.0024,-1.49192 -0.344258,-7.1627 -0.484315,-8.032 l -0.114183,-0.7087 -1.542542,0.0188 c -2.213161,0.027 -2.474836,0.12819 -2.546348,0.9844 -0.05949,0.71229 1.145784,7.43622 1.469041,8.19539 0.196466,0.46139 0.566174,0.5659 2.133354,0.60301 l 1.086681,0.0257 -0.0016,-1.08668 z m 4.042465,0.90623 c 0.57204,-0.21749 0.583684,-0.27064 1.150678,-5.25251 0.350407,-3.07881 0.38159,-3.77972 0.177967,-3.99977 -0.171286,-0.1851 -0.86587,-0.29433 -2.268241,-0.3567 l -2.021351,-0.0899 0.09394,4.55631 c 0.06559,3.18153 0.16343,4.64004 0.324255,4.83382 0.372094,0.44835 1.739029,0.61433 2.542751,0.30875 z m 6.161347,-3.9822 c 0.564401,-2.28882 0.947378,-4.24447 0.912963,-4.66201 l -0.05928,-0.71924 -2.031622,-0.0536 c -1.117394,-0.0295 -2.032812,0.013 -2.034267,0.0945 -0.0013,0.0815 -0.170355,1.5939 -0.375333,3.36093 -0.204975,1.76704 -0.373875,3.82314 -0.37533,4.56911 -0.003,1.55311 -0.05363,1.51329 1.798995,1.41582 l 1.191627,-0.0627 z m 2.541868,3.73743 c 0.762405,-0.67422 3.473113,-8.47065 3.135213,-9.01738 -0.0922,-0.14919 -0.65259,-0.24592 -1.52413,-0.26311 l -1.378327,-0.0272 -0.917032,3.59077 c -0.50437,1.97493 -0.969785,4.07811 -1.034256,4.67373 -0.110046,1.01671 -0.08958,1.09402 0.334539,1.26369 0.679767,0.27196 0.859472,0.24332 1.383993,-0.22053 z"
       id="path828"
       inkscape:connector-curvature="0" />
    <path
       style="opacity:0.62099998;fill:#000000;fill-opacity:1;stroke:#000000;stroke-width:0.42857143;stroke-miterlimit:4;stroke-dasharray:none;stroke-opacity:1"
       d="m 79.719157,130.21527 c -0.382902,-0.33619 -0.815213,-0.89613 -0.960689,-1.2443 -0.240051,-0.57452 -0.227472,-0.70954 0.136054,-1.46049 0.695355,-1.43641 2.046132,-2.01712 3.290629,-1.41467 1.884023,0.91204 1.941906,3.49833 0.09962,4.45101 -0.909579,0.47036 -1.780463,0.35782 -2.565612,-0.33155 z m 2.33562,-0.93898 c 0.302014,-0.25065 0.309338,-1.51492 0.0105,-1.81375 -0.330107,-0.33011 -1.482788,-0.27751 -1.88445,0.086 -0.603742,0.54638 -0.362976,1.72975 0.410343,2.01684 0.352033,0.1307 1.146995,-0.0263 1.463601,-0.28908 z"
       id="path830"
       inkscape:connector-curvature="0" />
    <path
       style="opacity:0.62099998;fill:#000000;fill-opacity:1;stroke:#000000;stroke-width:0.42857143;stroke-miterlimit:4;stroke-dasharray:none;stroke-opacity:1"
       d="m 97.078662,131.11103 c -0.734951,-0.4481 -1.366753,-1.41779 -1.367731,-2.09919 -0.0016,-1.12982 1.459208,-2.52345 2.645126,-2.52345 0.971709,0 1.700653,0.55876 2.156253,1.65283 0.34614,0.8312 0.34755,0.90144 0.0345,1.72116 -0.568935,1.48973 -2.14315,2.05651 -3.468139,1.24865 z m 2.092026,-1.12849 c 0.08425,-0.0785 0.126767,-0.55854 0.0945,-1.06678 -0.05466,-0.86077 -0.09583,-0.9283 -0.601231,-0.98606 -0.800063,-0.0914 -1.403919,0.11052 -1.637937,0.54779 -0.291598,0.54485 -0.03985,1.49021 0.450148,1.69039 0.423289,0.17293 1.427933,0.063 1.694524,-0.18534 z"
       id="path832"
       inkscape:connector-curvature="0" />
    <path
       style="opacity:0.62099998;fill:#000000;fill-opacity:1;stroke:#000000;stroke-width:0.42857143;stroke-miterlimit:4;stroke-dasharray:none;stroke-opacity:1"
       d="m 106.38805,120.71567 c -0.21548,-0.34865 0.12253,-0.59084 0.65987,-0.47282 0.71854,0.15782 1.69863,-0.2835 2.35552,-1.06064 1.21372,-1.43591 2.51972,-5.05733 2.96074,-8.20989 0.27538,-1.96846 0.27671,-1.96695 -1.74477,-1.97102 -0.79105,-0.002 -1.83089,-0.0567 -2.31075,-0.12248 -1.64253,-0.22514 -0.67073,-0.44738 1.95624,-0.44738 h 2.62611 l 0.11479,-0.61421 c 0.0631,-0.33782 0.13077,-2.05924 0.15031,-3.82537 l 0.0355,-3.21117 -0.85045,-0.12937 c -0.46775,-0.0712 -2.99783,-0.13567 -5.6224,-0.14337 l -4.77195,-0.014 -0.003,2.03162 c -0.002,1.11739 -0.0793,2.15229 -0.17262,2.29978 -0.18124,0.28633 -0.27537,-0.2392 -0.48699,-2.71871 -0.0618,-0.72415 -0.14564,-1.3499 -0.18631,-1.39057 -0.0407,-0.0407 -1.70758,-0.12018 -3.704256,-0.1767 l -3.630318,-0.10277 0.134329,2.29653 c 0.158718,2.7135 -0.119576,3.11551 -0.445043,0.64289 -0.303143,-2.30304 -0.342495,-2.44539 -0.717436,-2.59518 -0.182798,-0.073 -1.380019,-0.18007 -2.660491,-0.23789 l -2.32813,-0.10512 0.118504,2.34317 c 0.127233,2.51574 -0.09584,2.77524 -0.459411,0.53444 -0.461733,-2.84579 -0.04446,-7.145377 0.963906,-9.932127 2.193721,-6.06265 8.573063,-11.790244 14.480326,-13.00094 2.94279,-0.603128 7.51537,-0.52523 10.28144,0.175154 2.94368,0.745355 6.83311,3.153254 9.27557,5.74239 3.55362,3.767018 5.23447,7.698689 5.54303,12.965612 0.34512,5.890981 -1.786,11.301271 -6.12402,15.547041 -3.37149,3.29981 -7.61495,5.25148 -12.79213,5.88341 -2.10089,0.25644 -2.49769,0.2594 -2.64584,0.0197 z m 6.19475,-1.72516 c 0.80765,-0.40612 1.71207,-1.13097 2.88862,-2.31511 2.59219,-2.60891 4.346,-5.52835 4.20293,-6.99633 l -0.0571,-0.58617 -2.83953,-0.0519 c -2.08603,-0.0382 -2.91786,0.012 -3.13471,0.18898 -0.16248,0.13263 -0.65087,1.59472 -1.08643,3.25246 -0.43519,1.65633 -1.08691,3.75047 -1.44826,4.65363 -0.36135,0.90317 -0.657,1.82293 -0.657,2.04391 0,0.58544 0.71729,0.52169 2.13151,-0.18944 z m 4.84422,-1.19563 c 3.01926,-1.52997 7.71115,-6.65448 7.53477,-8.22951 -0.0525,-0.46883 -0.0691,-0.47288 -2.15465,-0.52568 l -2.10175,-0.0532 -0.43331,1.09264 c -0.5326,1.34305 -1.45512,2.94024 -3.19628,5.53387 -0.73269,1.0914 -1.33231,2.1332 -1.3325,2.3151 -5.3e-4,0.4665 0.5929,0.41955 1.68372,-0.13321 z m 3.30241,-10.63911 c 0.35376,-1.49197 0.60264,-3.1536 0.77842,-5.19717 l 0.12599,-1.46466 h -3.7702 -3.77019 l -0.12315,0.89769 c -0.0677,0.49373 -0.17768,2.27967 -0.24435,3.96875 l -0.12121,3.07106 h 3.4111 3.41111 z m 5.98714,-0.94494 c 0.42394,-1.51273 0.64884,-2.77787 0.70553,-3.96875 l 0.0832,-1.74814 -1.67619,0.002 c -0.9219,10e-4 -2.10306,0.0529 -2.62479,0.11566 l -0.9486,0.11401 -0.44326,2.9422 c -0.2438,1.61822 -0.52749,3.1838 -0.63042,3.47907 -0.35746,1.02542 0.0868,1.20039 3.18559,1.25467 l 1.72662,0.0302 z M 93.530806,96.666933 c 0.192532,-1.793026 0.387895,-3.578963 0.434142,-3.96875 l 0.08408,-0.708705 H 91.94172 c -1.966227,0 -2.13736,0.03005 -2.55615,0.448839 -0.748374,0.748374 -1.599274,4.233701 -1.609106,6.590966 l -0.0038,0.897695 h 2.704012 2.70401 z m 7.939564,0.566962 c 0.0714,-1.481193 0.1015,-3.201712 0.0669,-3.823375 l -0.0629,-1.130297 -0.90493,-0.150966 c -0.49771,-0.08303 -1.980555,-0.127188 -3.295214,-0.09813 l -2.390293,0.05284 -0.252593,0.944941 c -0.336658,1.259432 -0.802693,4.668774 -0.807294,5.905878 l -0.0037,0.992188 h 3.760112 3.760112 z m 12.00379,2.173364 c -0.003,-1.45706 -0.59255,-6.952914 -0.76475,-7.124898 -0.12826,-0.128114 -1.89997,-0.19839 -5.00144,-0.19839 -4.01986,0 -4.84806,0.04621 -5.08029,0.283483 -0.25698,0.262546 -0.39414,1.47701 -0.75233,6.661829 l -0.062,0.897695 h 5.83088 5.83089 l -0.001,-0.519719 z m 8.02959,-1.223438 c -0.17058,-2.155317 -0.72958,-4.947402 -1.1053,-5.52083 -0.35271,-0.538298 -1.24167,-0.673513 -4.42788,-0.673513 h -2.36548 l 0.1246,3.165549 c 0.0685,1.741053 0.17804,3.526991 0.24337,3.96875 l 0.11878,0.803201 h 3.77494 3.77494 z m 5.90372,-0.09948 c -0.12159,-2.079801 -0.89069,-5.030672 -1.46215,-5.609956 -0.30418,-0.308343 -0.70582,-0.378754 -2.56683,-0.449988 l -2.20623,-0.08445 0.11467,0.638976 c 0.0631,0.351436 0.24548,1.787078 0.40536,3.190315 0.15989,1.403236 0.33767,2.912779 0.39507,3.354538 l 0.10436,0.803201 h 2.66173 2.66174 z M 95.321093,89.768867 c 0.882791,-1.843402 1.479807,-2.827922 3.078719,-5.077005 1.276633,-1.795756 1.354674,-2.15179 0.471664,-2.15179 -1.464429,0 -5.220644,3.042428 -7.514359,6.086419 -1.219478,1.618369 -1.530178,2.35571 -1.105879,2.624424 0.143999,0.0912 1.165442,0.167113 2.269876,0.168703 l 2.00806,0.0029 z m 6.465627,1.41741 c 0.15956,-0.129929 0.3894,-0.804164 0.51077,-1.498298 0.30422,-1.739863 1.05735,-4.281152 1.84991,-6.242114 0.73339,-1.814547 0.75303,-2.29231 0.098,-2.385504 -1.68541,-0.239805 -6.238844,4.026654 -7.932788,7.432836 -1.345666,2.705862 -1.155476,2.929316 2.493258,2.929316 1.87185,0 2.77899,-0.07189 2.98081,-0.236236 z m 10.55446,-0.14174 c 0.20788,-0.207888 0.37797,-0.459362 0.37797,-0.558834 0,-0.09947 -0.29163,-1.311357 -0.64807,-2.69308 -1.18874,-4.608052 -2.57383,-7.225522 -3.88764,-7.346646 -0.95029,-0.08761 -1.32357,0.02735 -1.99066,0.613063 -1.38834,1.218978 -2.74806,4.937173 -3.56523,9.749261 l -0.10431,0.614212 h 4.71998 c 4.468,0 4.74016,-0.02019 5.09796,-0.377976 z m 7.00498,0.182338 c 0.55105,-0.294916 0.45094,-0.989426 -0.39108,-2.712924 -1.73875,-3.558982 -5.8704,-7.475265 -7.8955,-7.483938 -0.70291,-0.003 -0.69864,0.497168 0.0199,2.328241 0.77368,1.971693 1.45098,4.248052 1.93726,6.510985 l 0.33378,1.553274 h 2.81507 c 1.57908,0 2.97555,-0.0859 3.18061,-0.195638 z m 5.35828,0.08092 c 0.63623,-0.244144 0.2475,-1.316895 -1.12263,-3.098086 -2.35882,-3.066497 -5.69473,-5.669642 -7.2656,-5.669642 -0.91614,0 -0.74006,0.468556 1.07608,2.86353 0.52431,0.691422 1.49454,2.328166 2.15607,3.637208 l 1.20279,2.380076 1.82717,7.93e-4 c 1.00495,5.29e-4 1.9617,-0.05081 2.12612,-0.1139 z"
       id="path834"
       inkscape:connector-curvature="0" />
    <path
       style="opacity:0.62099998;fill:#000000;fill-opacity:1;stroke:#000000;stroke-width:0.80989879;stroke-miterlimit:4;stroke-dasharray:none;stroke-opacity:1"
       d="m 314.74285,470.57989 c -14.36553,-0.43957 -18.0941,-1.09877 -18.34172,-3.24277 -0.33307,-2.88386 2.57664,-3.07253 53.30477,-3.45628 l 29.97964,-0.2268 1.19133,-2.9726 c 0.65523,-1.63494 1.41467,-3.93 1.68765,-5.10015 0.48065,-2.06037 0.47187,-2.1433 -0.27811,-2.62679 -0.42594,-0.2746 -2.06014,-0.67713 -3.63157,-0.89452 -3.77148,-0.52176 -28.08588,-1.06108 -48.4239,-1.07409 -8.95458,-0.006 -21.34447,-0.1162 -27.53311,-0.2455 l -11.25206,-0.23507 -2.92977,-9.37412 c -3.17661,-10.16392 -8.91727,-28.12275 -13.99059,-43.76757 l -3.19801,-9.86185 -2.94342,-0.22501 c -1.61889,-0.12376 -6.5595,-0.39252 -10.97914,-0.59723 -12.28332,-0.56896 -16.05632,-0.93683 -16.83485,-1.64139 -1.04118,-0.94225 -0.8392,-2.1764 0.49556,-3.02811 1.14439,-0.73022 1.39178,-0.73763 17.58929,-0.52667 9.03571,0.11768 16.76257,0.30415 17.1708,0.41436 0.62795,0.16954 1.20961,1.74974 3.77808,10.26407 l 3.03586,10.06367 47.47191,0.24767 c 55.18385,0.2879 62.13431,0.53718 63.88844,2.2913 1.2004,1.2004 0.70625,3.13984 -6.04125,23.71103 -4.2402,12.92713 -4.74032,14.79463 -4.15191,15.50362 0.44423,0.53526 3.03674,1.2821 4.45059,1.2821 0.49135,0 1.33986,0.38406 1.88558,0.85347 l 0.99223,0.85347 -0.43427,2.53241 c -0.5839,3.40506 -3.71123,12.8055 -5.35818,16.10614 -0.73191,1.46681 -1.73908,2.9597 -2.23817,3.31753 -1.28685,0.92262 -5.19871,1.25106 -19.98543,1.67798 -14.25187,0.41147 -34.50527,0.40213 -48.37627,-0.0223 z m -8.70248,-25.92081 1.10092,-0.22019 -0.19581,-4.14242 c -0.27333,-5.78196 -4.35165,-29.24809 -5.24133,-30.15788 -0.36004,-0.36818 -11.48787,-0.32116 -13.22788,0.0559 -1.15528,0.25035 -1.25817,0.3817 -1.35775,1.73342 -0.12398,1.6829 0.61697,4.77436 3.36685,14.04757 3.999,13.48555 5.8284,18.86921 6.47812,19.06421 0.7326,0.21987 7.49154,-0.0635 9.07688,-0.3806 z m 20.29304,-1.16403 c 0,-4.78753 -1.53791,-29.54106 -2.02809,-32.64325 l -0.21706,-1.37367 -6.12586,0.12367 c -7.53397,0.1521 -8.05756,0.36213 -8.05756,3.23216 0,3.63278 3.83725,25.48774 5.20206,29.6282 0.30191,0.91589 0.82192,1.77947 1.15557,1.91906 0.88987,0.3723 4.51631,0.77514 7.48165,0.8311 l 2.58929,0.0489 z m 14.23268,1.387 c 3.09671,-0.66412 3.0462,-0.49663 4.85019,-16.08429 1.68874,-14.5919 1.88107,-17.52763 1.1861,-18.1044 -0.62484,-0.51857 -4.71773,-1.01582 -10.76074,-1.30732 l -4.24178,-0.20461 0.24432,11.52202 c 0.28185,13.29199 0.75632,21.80297 1.26885,22.76064 0.34499,0.64461 1.71213,1.23693 3.57752,1.54998 1.60138,0.26875 2.0834,0.25233 3.87554,-0.13202 z m 33.14721,-0.42443 c 0.64575,-0.44197 1.5695,-1.52962 2.05278,-2.41699 3.42268,-6.28459 11.16835,-29.34093 10.4691,-31.16313 -0.25874,-0.67429 -2.16717,-0.96471 -6.37084,-0.96953 l -3.43335,-0.004 -1.46822,5.625 c -4.3338,16.60346 -6.5018,27.13233 -5.81448,28.23795 0.23152,0.37242 2.48756,1.40369 3.23445,1.47852 0.0861,0.009 0.68481,-0.34593 1.33056,-0.78789 z m -12.48321,-0.0647 c 0.19465,-0.14492 5.50229,-22.63742 6.17082,-26.15042 0.41688,-2.19064 0.70884,-4.84243 0.6488,-5.89286 l -0.10916,-1.90986 -6.75974,-0.0974 c -3.71786,-0.0536 -6.88312,0.0268 -7.03392,0.17857 -0.34338,0.34563 -2.30275,18.03646 -2.81895,25.45194 -0.41734,5.99519 -0.26066,8.023 0.66183,8.56579 0.46355,0.27275 8.85601,0.14036 9.24032,-0.14576 z"
       id="path836"
       inkscape:connector-curvature="0"
       transform="scale(0.26458333)" />
    <path
       style="opacity:0.62099998;fill:#000000;fill-opacity:1;stroke:#000000;stroke-width:0.80989879;stroke-miterlimit:4;stroke-dasharray:none;stroke-opacity:1"
       d="m 367.50463,496.49402 c -3.47716,-1.73274 -6.2534,-5.66042 -6.2959,-8.90712 -0.042,-3.21225 2.84464,-7.1688 6.73182,-9.22675 1.85192,-0.98045 5.87614,-1.0562 7.57264,-0.14255 2.52295,1.35874 5.08264,5.02327 5.83315,8.3509 0.52383,2.32261 -1.31003,6.62255 -3.75392,8.80201 -2.48997,2.22054 -6.90058,2.71177 -10.08779,1.12351 z m 6.56008,-5.56231 c 0.58057,-0.48183 0.66122,-4.44095 0.11949,-5.86579 -0.35381,-0.93061 -0.42938,-0.95233 -2.83975,-0.81613 -3.19367,0.18046 -4.29676,1.05662 -4.29676,3.41282 0,1.79345 0.77331,3.53102 1.69158,3.80083 0.9911,0.29122 4.79101,-0.0882 5.32544,-0.53173 z"
       id="path838"
       inkscape:connector-curvature="0"
       transform="scale(0.26458333)" />
    <path
       style="opacity:0.62099998;fill:#000000;fill-opacity:1;stroke:#000000;stroke-width:0.80989879;stroke-miterlimit:4;stroke-dasharray:none;stroke-opacity:1"
       d="m 305.16109,494.87903 c -2.17434,-0.52438 -3.21363,-1.21647 -5.50489,-3.66584 -2.01065,-2.14938 -3.32334,-4.63193 -3.32251,-6.28348 5.5e-4,-1.10147 2.12063,-5.01781 3.56404,-6.58373 3.86249,-4.1903 9.71745,-4.3161 13.754,-0.29552 2.21353,2.20478 2.847,3.76559 2.85407,7.03216 0.005,2.51256 -0.12304,3.09071 -1.06525,4.79388 -2.0456,3.69769 -6.56676,5.89792 -10.27946,5.00253 z m 3.04312,-6.06403 c 0.73429,-0.20393 1.49768,-0.67461 1.69642,-1.04596 0.57566,-1.07563 0.4384,-4.38177 -0.221,-5.3232 -0.53167,-0.75906 -0.79358,-0.81948 -3.00948,-0.69427 -2.71422,0.15337 -3.7182,0.76024 -4.09488,2.47522 -0.32824,1.49451 0.0976,2.99071 1.15092,4.04407 1.00781,1.0078 2.2604,1.16001 4.47802,0.54414 z"
       id="path840"
       inkscape:connector-curvature="0"
       transform="scale(0.26458333)" />
    <path
       style="opacity:0.62099998;fill:#000000;fill-opacity:1;stroke:#000000;stroke-width:0.80989879;stroke-miterlimit:4;stroke-dasharray:none;stroke-opacity:1"
       d="m 401.89463,456.84282 c -0.66609,-0.66609 -0.73363,-1.98065 -0.13265,-2.58163 0.25151,-0.25151 1.46883,-0.43002 2.94643,-0.43206 6.61991,-0.009 10.71062,-4.85979 15.35775,-18.21065 2.09697,-6.02444 4.48153,-17.10463 4.48153,-20.82405 0,-1.75222 -0.53415,-1.90754 -7.50634,-2.18276 -9.11224,-0.35968 -11.69733,-0.86087 -11.19481,-2.17041 0.10172,-0.26509 0.45378,-0.59816 0.78234,-0.74013 0.32856,-0.14198 4.85001,-0.3553 10.04766,-0.47405 l 9.45027,-0.21589 0.28578,-1.25 c 0.15718,-0.6875 0.38876,-6.89336 0.51463,-13.7908 l 0.22884,-12.5408 -1.2149,-0.25057 c -0.66819,-0.13782 -9.91047,-0.33705 -20.53839,-0.44274 l -19.32349,-0.19216 -0.17924,7.46559 c -0.17953,7.47794 -0.44367,9.03719 -1.53092,9.03719 -0.28082,0 -0.67449,-0.30627 -0.87483,-0.68061 -0.26893,-0.50249 -1.80374,-13.31118 -1.80374,-15.05299 0,-0.13235 -1.24553,-0.26809 -2.76786,-0.30164 -1.52232,-0.0335 -6.94642,-0.21246 -12.05357,-0.39759 -5.10714,-0.18513 -9.81552,-0.34026 -10.46306,-0.34474 l -1.17734,-0.008 0.22003,8.125 c 0.23009,8.49633 0.09,9.5789 -1.14036,8.81196 -0.79593,-0.49615 -1.02129,-1.39493 -1.91845,-7.65125 -0.89536,-6.24372 -1.25608,-7.72025 -1.95129,-7.98702 -0.60555,-0.23238 -7.65573,-0.80042 -13.81937,-1.11346 l -4.1784,-0.21221 0.0713,8.13027 c 0.0659,7.52356 0.0241,8.13959 -0.56047,8.25526 -1.55404,0.30747 -2.82228,-6.85894 -2.83178,-16.00141 -0.024,-23.09153 7.00132,-40.20149 23.09606,-56.25 11.37893,-11.34623 25.23492,-19.21807 37.68889,-21.41173 10.22064,-1.80027 25.86649,-1.65398 35.35714,0.33059 14.16529,2.96209 31.66451,14.35536 42.25287,27.50971 11.5012,14.28842 16.75556,29.71823 16.72258,49.10714 -0.0213,12.50691 -2.45746,22.79821 -7.9643,33.64395 -9.42475,18.5621 -25.85116,32.60198 -45.83258,39.17374 -10.65965,3.50589 -26.82708,5.83993 -28.54592,4.12109 z m 21.40256,-6.83058 c 3.71592,-1.55607 6.98657,-4.02873 12.16944,-9.20026 9.72311,-9.70183 15.68879,-19.02693 16.14057,-25.22973 0.16353,-2.24514 0.13131,-2.36832 -0.67604,-2.58441 -1.08738,-0.29104 -17.92085,-0.29937 -19.67279,-0.01 -1.25092,0.20681 -1.37511,0.35143 -2.22024,2.58536 -0.49237,1.30147 -2.09321,6.54487 -3.55744,11.65201 -1.46422,5.10714 -3.41493,11.375 -4.33492,13.92857 -3.56354,9.89116 -3.63625,10.43943 -1.32695,10.0062 0.73426,-0.13774 2.29952,-0.65435 3.47837,-1.148 z m 19.93068,-5.31841 c 5.15681,-2.58495 10.65384,-6.97605 17.08996,-13.6517 6.84642,-7.10122 11.60721,-14.13248 11.31215,-16.70707 -0.10221,-0.89193 -0.30914,-1.06335 -1.54657,-1.28121 -0.78572,-0.13832 -4.16153,-0.26076 -7.50182,-0.27208 l -6.07325,-0.0206 -0.85014,2.23214 c -2.01903,5.30122 -5.01681,10.64266 -12.0765,21.51786 -3.93763,6.06578 -5.46258,8.71498 -5.46258,9.4898 0,0.6639 2.40341,0.0489 5.10875,-1.30716 z m 12.29184,-39.25407 c 1.50761,-6.64659 3.3137,-19.51466 3.3137,-23.60958 v -1.21185 h -13.52578 -13.52579 l -0.21749,1.36011 c -0.51268,3.20613 -1.66638,26.72951 -1.32752,27.06751 0.0844,0.0842 5.62528,0.11078 12.31311,0.0591 l 12.15968,-0.0939 z m 21.96341,-1.25 c 1.83697,-6.51994 3.07741,-12.73208 3.31634,-16.60825 0.10893,-1.76725 0.2774,-4.07699 0.37436,-5.13275 l 0.1763,-1.91957 -8.4905,0.17224 c -4.66977,0.0947 -8.89938,0.3393 -9.39913,0.54349 -0.82764,0.33817 -0.94972,0.66895 -1.36983,3.71162 -0.78363,5.6755 -2.87957,17.88241 -3.41527,19.89083 -0.60618,2.27262 -0.48462,2.7089 0.91644,3.28924 1.2918,0.53508 7.29902,0.97082 12.61937,0.91537 l 3.9135,-0.0408 z M 351.69055,376.5154 c 0,-0.29232 0.64286,-6.42127 1.42857,-13.6199 0.78572,-7.19863 1.42857,-13.39705 1.42857,-13.77427 0,-0.65802 -0.30346,-0.68142 -7.47736,-0.57652 l -7.47737,0.10933 -1.09376,1.04867 c -2.6249,2.5167 -5.50895,13.59032 -5.98217,22.96919 l -0.22075,4.375 h 9.69714 c 8.34737,0 9.69713,-0.074 9.69713,-0.5315 z m 30.83949,-2.23636 c 0.38622,-4.68243 0.66019,-24.17126 0.34599,-24.61168 -0.16293,-0.22839 -1.55259,-0.59 -3.08813,-0.80357 -3.51364,-0.4887 -19.33415,-0.51608 -20.23303,-0.035 -0.45637,0.24424 -0.88578,1.31913 -1.39109,3.48214 -1.103,4.72145 -2.52934,15.05797 -2.78498,20.18241 l -0.22716,4.55356 h 13.57505 13.57505 z m 45.47888,-1.78571 c -0.3528,-7.28439 -2.09595,-22.77097 -2.62245,-23.29849 -0.27049,-0.27102 -32.49805,-0.45303 -34.59185,-0.19536 -0.98384,0.12107 -1.99791,0.34937 -2.2535,0.50734 -0.25559,0.15796 -0.69018,1.63785 -0.96575,3.28864 -0.45519,2.72678 -1.95625,20.48425 -1.95625,23.14239 v 1.10905 h 21.30517 21.30517 z m 30.70021,0.74829 c -0.42741,-6.98541 -1.94823,-16.02068 -3.49355,-20.7554 -1.18482,-3.63016 -2.71236,-4.01075 -16.09743,-4.01075 h -9.22692 l 0.16409,0.80357 c 0.0903,0.44197 0.26157,3.85715 0.38071,7.58929 0.23755,7.4411 0.7651,16.28383 1.11328,18.66071 l 0.22234,1.51786 h 13.58515 13.58515 z m 22.43196,1.21599 c -0.67841,-8.90307 -1.84564,-15.4543 -3.6395,-20.42731 -1.16691,-3.23494 -1.7639,-4.11316 -3.20546,-4.71549 -1.06853,-0.44646 -15.011,-1.41011 -15.35951,-1.06159 -0.0723,0.0723 0.03,1.15632 0.22737,2.40898 0.19734,1.25266 0.92653,7.09899 1.62043,12.99184 0.6939,5.89286 1.35649,11.31697 1.47242,12.05357 l 0.21078,1.33929 h 9.43539 9.43538 z M 359.77858,338.917 c 3.36695,-6.91714 5.17297,-9.94895 10.47489,-17.58439 3.77951,-5.44299 5.00851,-7.45427 5.00851,-8.19655 0,-0.20618 -0.71664,-0.37487 -1.59254,-0.37487 -4.3559,0 -15.20063,7.98739 -23.32578,17.17998 -4.09163,4.62916 -7.35162,9.07672 -8.55606,11.67293 -1.4227,3.06668 -1.28494,3.11496 9.18867,3.22067 l 5.89285,0.0595 z m 23.94926,5.4442 c 0.95959,-0.30012 1.52647,-1.91241 2.78231,-7.91332 1.20921,-5.77804 3.30217,-12.7845 5.75758,-19.27426 3.56929,-9.43378 3.62545,-10.37127 0.60086,-10.03035 -5.74173,0.64717 -18.7307,12.30665 -25.55505,22.93934 -3.25487,5.07127 -5.90325,11.23292 -5.44656,12.67182 0.55672,1.75408 3.13877,2.14072 13.21643,1.97905 4.32143,-0.0693 8.21142,-0.23685 8.64443,-0.37228 z m 39.46189,-0.0802 c 0.52991,-0.22907 1.2438,-0.84433 1.58643,-1.36725 0.60581,-0.92457 0.58055,-1.1242 -0.91683,-7.24808 -3.88438,-15.88596 -8.47643,-26.66806 -12.74421,-29.92325 -1.17529,-0.89644 -1.63275,-1.01693 -3.86105,-1.01693 -2.27928,0 -2.69488,0.116 -4.22712,1.17986 -3.91733,2.71986 -7.47444,9.52823 -10.6476,20.3797 -1.38535,4.7376 -3.90308,16.25829 -3.90308,17.85981 v 0.81424 l 16.875,-0.1308 c 11.79738,-0.0915 17.1649,-0.25613 17.83846,-0.5473 z m 27.25082,-0.1208 c 1.4043,-0.6703 1.54144,-1.92942 0.51789,-4.7549 -5.1105,-14.10735 -22.65581,-32.35838 -31.10718,-32.35838 h -1.47449 l 0.20887,1.69643 c 0.11487,0.93303 1.1097,4.10714 2.21073,7.05357 3.02021,8.08232 5.60761,17.08787 7.52974,26.20761 l 0.63089,2.99333 10.20606,-0.16313 c 7.85084,-0.12548 10.45331,-0.28114 11.27749,-0.67453 z m 19.46429,0.44953 c 1.42483,-0.214 1.62015,-0.35479 1.72185,-1.24113 0.31381,-2.73508 -4.99061,-10.32425 -12.42333,-17.77438 -7.81404,-7.83233 -15.34831,-12.83301 -19.33483,-12.83301 -0.96217,0 -1.74941,0.0868 -1.74941,0.1928 0,0.65528 1.9336,3.77899 4.63373,7.48577 3.89258,5.34378 6.22227,9.24647 10.60642,17.76785 l 3.44523,6.69643 5.7466,-0.0265 c 3.16063,-0.0146 6.46981,-0.1351 7.35374,-0.26786 z"
       id="path842"
       inkscape:connector-curvature="0"
       transform="scale(0.26458333)" />
  </g>
</svg>
