<?xml version="1.0" encoding="utf-8"?>
<!-- Generator: Adobe Illustrator 22.0.1, SVG Export Plug-In . SVG Version: 6.00 Build 0)  -->
<svg version="1.1" id="Livello_1" xmlns="http://www.w3.org/2000/svg" xmlns:xlink="http://www.w3.org/1999/xlink" x="0px" y="0px"
	 viewBox="0 0 150 150" style="enable-background:new 0 0 150 150;" xml:space="preserve">
<style type="text/css">
	.st0{fill:none;stroke:#000000;stroke-width:7;stroke-miterlimit:10;}
</style>
<g>
	<path class="st0" d="M101.5,48.7c-7.6-7.6-20-7.6-27.6,0c0,0-25.5,26.9-53.1,80.7c53.7-27.6,80.7-53.1,80.7-53.1
		C109.1,68.6,109.1,56.3,101.5,48.7z"/>
	<path class="st0" d="M66.9,56.9c0,0,10.1-2.5,15.7,10.2"/>
	<path class="st0" d="M78.1,94.8c0,0,1.8-8.5-6-13.9"/>
	<path class="st0" d="M42.7,91c0,0,7,0.6,8.5,7.5"/>
	<path class="st0" d="M90.9,43.2L104,24.7v15.5l17.6-19.6c0,0-6.8,24.2-6.3,23.8c0.5-0.3,13.9-1.5,13.9-1.5l-22.8,13.5"/>
</g>
</svg>
