<svg height='300px' width='300px'  fill="#000000" xmlns="http://www.w3.org/2000/svg" viewBox="0 0 64 64" x="0px" y="0px"><title>vegetable-greens-salad-healthy-food</title><g><rect x="31" y="46" width="2" height="2"></rect><rect x="31" y="38" width="2" height="2"></rect><rect x="27" y="40" width="2" height="2"></rect><rect x="27" y="44" width="2" height="2"></rect><rect x="35" y="44" width="2" height="2"></rect><rect x="25" y="30" width="2" height="2"></rect><rect x="25" y="22" width="2" height="2"></rect><rect x="21" y="24" width="2" height="2"></rect><rect x="37" y="30" width="2" height="2"></rect><rect x="33" y="24" width="2" height="2"></rect><rect x="41" y="24" width="2" height="2"></rect><rect x="33" y="28" width="2" height="2"></rect><rect x="37" y="26" width="2" height="2"></rect><rect x="19" y="33" width="2" height="2"></rect><rect x="15" y="35" width="2" height="2"></rect><rect x="15" y="39" width="2" height="2"></rect><rect x="23" y="39" width="2" height="2"></rect><rect x="19" y="37" width="2" height="2"></rect><rect x="43" y="41" width="2" height="2"></rect><rect x="43" y="33" width="2" height="2"></rect><rect x="47" y="35" width="2" height="2"></rect><rect x="39" y="39" width="2" height="2"></rect><rect x="47" y="39" width="2" height="2"></rect><rect x="10" y="2" width="2" height="14"></rect><rect x="11" y="24" width="3" height="2"></rect><path d="M50,2A12,12,0,0,0,38,14v3a10,10,0,0,0-6,2,10,10,0,0,0-13,.86,4.58,4.58,0,0,0-.55-.7,3.94,3.94,0,0,0-2.26-1.11L19,3.18l-2-.36L14.17,18H7.83L5,2.82,3,3.18,5.81,18.06a4,4,0,0,0-3.4,4.41L6.65,58.14a4.38,4.38,0,0,0,8.7,0L16.63,47.4a9.79,9.79,0,0,0,6.11.21A11.91,11.91,0,0,0,26,50.36V61a1,1,0,0,0,1,1H37a1,1,0,0,0,1-1V50.36a11.91,11.91,0,0,0,3.26-2.75l.09,0,0,0c.16.18.33.35.5.52L49,55.38V62h2V55.38l7.19-7.19A12.89,12.89,0,0,0,62,39V14A12,12,0,0,0,50,2ZM14.54,48H11v2h3.3l-.94,7.9a2.38,2.38,0,0,1-4.72,0L8.41,56H10V54H8.17L7,44h3V42H6.75L5.55,32H8V30H5.32l-.48-4H9V24H4.6l-.21-1.76a2,2,0,0,1,2-2.24h9.24a2,2,0,0,1,1.42.59,2,2,0,0,1,.55,1A9.91,9.91,0,0,0,16,27a9.6,9.6,0,0,0,.16,1.76,10,10,0,0,0-1.44,17.72ZM36,56H33v2h3v2H28V56h2V54H28V51.3a11.78,11.78,0,0,0,8,0Zm5.25-10.5a1,1,0,0,0-1.16.35,10,10,0,0,1-16.18,0,1,1,0,0,0-.81-.41,1.07,1.07,0,0,0-.35.06,8,8,0,1,1-5.12-15.14,1,1,0,0,0,.67-1.22,8,8,0,0,1,13-8.09,1,1,0,0,0,1.34,0,8,8,0,0,1,13,8.09,1,1,0,0,0,.67,1.22A8,8,0,1,1,41.25,45.5ZM49,29.34a9.65,9.65,0,0,0-1.16-.58A9.6,9.6,0,0,0,48,27c0-.21,0-.41,0-.62l1,1ZM44.42,48A9.93,9.93,0,0,0,49,46.65v5.91ZM60,39a10.92,10.92,0,0,1-3.22,7.78L51,52.56V45.41l5.71-5.7-1.42-1.42-1.45,1.46a9.91,9.91,0,0,0-.6-5.58l3.47-3.46-1.42-1.42-3,3A9.8,9.8,0,0,0,51,30.85V27.41l5.71-5.7-1.42-1.42L51,24.59V18.41l5.71-5.7-1.42-1.42L51,15.59V9H49v6.59l-4.29-4.3-1.42,1.42L49,18.41v6.18l-2.08-2.08A10,10,0,0,0,40,17.2V14a10,10,0,0,1,20,0Z"></path></g></svg>